lilgrotesk_regular.sfdir

StartChar: exclam
Encoding: 33 33 161
Width: 369
Flags: MW
HStem: 0 125<169.5 204>
VStem: 124 125<45.5 80> 143 88
LayerCount: 2
Fore
SplineSet
240 708 m 1xa0
 222 241 l 1
 152 241 l 1
 134 708 l 1
 240 708 l 1xa0
187 0 m 0xc0
 152 0 124 28 124 63 c 0
 124 97 152 125 187 125 c 0
 221 125 249 97 249 63 c 0
 249 28 221 0 187 0 c 0xc0
EndSplineSet
EndChar

StartChar: quotedbl
Encoding: 34 34 167
Width: 360
Flags: MW
HStem: 548 218<27 77 27 27 250 250 250 300>
VStem: 19 63 242 63
LayerCount: 2
Fore
SplineSet
87 766 m 1
 77 548 l 1
 27 548 l 1
 11 766 l 1
 87 766 l 1
310 766 m 1
 300 548 l 1
 250 548 l 1
 234 766 l 1
 310 766 l 1
EndSplineSet
EndChar

StartChar: numbersign
Encoding: 35 35 163
Width: 678
Flags: MW
HStem: 180 64<12 125 12 142 215 383 12 197 473 585> 480 64<93 206 93 223 93 278 296 465 555 666>
VStem: 12 654<180 544 244 544>
LayerCount: 2
Fore
SplineSet
585 244 m 1
 585 180 l 1
 455 180 l 1
 406 1 l 1
 334 1 l 1
 383 180 l 1
 197 180 l 1
 149 0 l 1
 76 0 l 1
 125 180 l 1
 12 180 l 1
 12 244 l 1
 142 244 l 1
 206 480 l 1
 93 480 l 1
 93 544 l 1
 223 544 l 1
 276 740 l 1
 349 740 l 1
 296 544 l 1
 483 544 l 1
 538 747 l 1
 610 747 l 1
 555 544 l 1
 666 544 l 1
 666 480 l 1
 537 480 l 1
 473 244 l 1
 585 244 l 1
215 244 m 1
 400 244 l 1
 465 480 l 1
 278 480 l 1
 215 244 l 1
EndSplineSet
EndChar

StartChar: dollar
Encoding: 36 36 193
Width: 600
Flags: MW
HStem: -107 139<259 329 259 259> 670 140
VStem: 67 70 259 70<-107 -31 -31 -31 734 810> 463 70<122 224>
LayerCount: 2
Fore
SplineSet
486 632 m 1
 431 592 l 1
 431 592 375 665 281 670 c 0
 195 675 130 612 137 532 c 0
 143 459 219 425 292 398 c 1
 318 388 l 2
 374 367 533 325 533 171 c 0
 533 44 432 -16 329 -29 c 1
 329 -107 l 1
 259 -107 l 1
 259 -31 l 1
 142 -21 59 55 32 100 c 1
 92 133 l 1
 116 92 184 32 284 32 c 0
 377 32 463 73 463 171 c 0
 463 277 351 307 294 328 c 2
 268 338 l 1
 189 367 77 415 67 527 c 1
 58 640 142 729 259 734 c 1
 259 810 l 1
 329 810 l 1
 329 728 l 1
 430 705 486 632 486 632 c 1
EndSplineSet
EndChar

StartChar: percent
Encoding: 37 37 211
Width: 675
Flags: MW
HStem: -4 64<494.5 519.5 494.5 541> 287 64<494 520> 356 64<175.5 200.5 175.5 222> 647 64<175 201>
VStem: 63 70<493.5 576 493.5 593.5> 243 70<493.5 576> 382 70<133.5 215.5 133.5 233.5> 562 70<133.5 215.5>
LayerCount: 2
Fore
SplineSet
188 356 m 0
 120 356 63 418 63 535 c 0
 63 652 120 711 188 711 c 0
 256 711 313 652 313 535 c 0
 313 418 256 356 188 356 c 0
630 711 m 1
 156 0 l 1
 74 0 l 1
 549 711 l 1
 630 711 l 1
188 420 m 0
 213 420 243 452 243 535 c 0
 243 617 214 647 188 647 c 0
 162 647 133 617 133 535 c 0
 133 452 163 420 188 420 c 0
507 -4 m 0
 439 -4 382 57 382 175 c 0
 382 292 439 351 507 351 c 0xdf
 575 351 632 292 632 175 c 0
 632 57 575 -4 507 -4 c 0
507 60 m 0
 532 60 562 92 562 175 c 0
 562 256 533 287 507 287 c 0xdf
 481 287 452 256 452 175 c 0
 452 92 482 60 507 60 c 0
EndSplineSet
EndChar

StartChar: ampersand
Encoding: 38 38 218
Width: 692
Flags: MW
HStem: -22 64<191.5 294.5 191.5 304.5> 661 64<308 352>
VStem: 16.03 69.63 157.79 69.47 410.42 70.43 495 70<308.5 327>
LayerCount: 2
Fore
SplineSet
584 0 m 1
 491 93 l 1
 442 28 364 -22 245 -22 c 0
 90 -22 -10 99 22 243 c 0
 39 322 102 380 190 423 c 1
 168 465 150 522 161 585 c 0
 177 677 255 725 331 725 c 0xf8
 410 725 501 658 477 548 c 0
 459 466 390 428 301 398 c 2
 292 395 l 1
 316 369 395 288 476 205 c 1
 490 247 495 290 495 327 c 1
 565 327 l 1
 565 277 555 213 527 153 c 1xfc
 678 0 l 1
 584 0 l 1
253 450 m 1
 278 459 l 1
 357 485 397 508 408 562 c 1
 422 622 373 661 331 661 c 0
 285 661 240 632 230 574 c 0
 221 525 235 483 253 450 c 1
233 360 m 2
 226 369 l 1
 150 333 104 289 90 229 c 0
 67 125 138 42 245 42 c 0
 344 42 406 84 444 141 c 1
 353 234 248 342 233 360 c 2
EndSplineSet
EndChar

StartChar: quotesingle
Encoding: 39 39 10
Width: 135
Flags: MW
HStem: 548 218<27 77 27 27>
VStem: 19 63
LayerCount: 2
Fore
SplineSet
87 766 m 1
 77 548 l 1
 27 548 l 1
 11 766 l 1
 87 766 l 1
EndSplineSet
EndChar

StartChar: parenleft
Encoding: 40 40 175
Width: 264
Flags: MW
HStem: -127 888<178 179>
VStem: 50 70<216 433 216 442>
LayerCount: 2
Fore
SplineSet
239 -95 m 1
 178 -127 l 1
 178 -127 50 91 50 325 c 0
 50 559 179 761 179 761 c 1
 238 727 l 1
 238 727 120 541 120 325 c 0
 120 107 239 -95 239 -95 c 1
EndSplineSet
EndChar

StartChar: parenright
Encoding: 41 41 176
Width: 269
Flags: MW
HStem: -127 888<110 111>
VStem: 50 189
LayerCount: 2
Fore
SplineSet
50 -95 m 1
 111 -127 l 1
 111 -127 239 91 239 325 c 0
 239 559 110 761 110 761 c 1
 51 727 l 1
 51 727 169 541 169 325 c 0
 169 107 50 -95 50 -95 c 1
EndSplineSet
EndChar

StartChar: asterisk
Encoding: 42 42 156
Width: 600
Flags: MW
HStem: 416 381<154 275>
VStem: 205 70<642 797 642 797>
LayerCount: 2
Fore
SplineSet
241 539 m 1
 154 416 l 1
 96 453 l 1
 187 580 l 1
 39 627 l 1
 61 688 l 1
 205 642 l 1
 205 797 l 1
 275 797 l 1
 275 642 l 1
 420 688 l 1
 441 626 l 1
 294 580 l 1
 386 454 l 1
 329 417 l 1
 241 539 l 1
EndSplineSet
EndChar

StartChar: plus
Encoding: 43 43 213
Width: 600
Flags: MW
HStem: 239 64<20 256 20 256 326 561>
VStem: 256 70<0 239 303 541>
LayerCount: 2
Fore
SplineSet
326 0 m 1
 256 0 l 1
 256 239 l 1
 20 239 l 1
 20 303 l 1
 256 303 l 1
 256 541 l 1
 326 541 l 1
 326 303 l 1
 561 303 l 1
 561 239 l 1
 326 239 l 1
 326 0 l 1
EndSplineSet
EndChar

StartChar: comma
Encoding: 44 44 11
Width: 265
Flags: MW
HStem: -126 217<121 121>
VStem: 110 71<7 91 -7 91>
LayerCount: 2
Fore
SplineSet
110 91 m 1
 181 91 l 1
 181 -7 l 1
 121 -126 l 1
 58 -98 l 1
 110 7 l 1
 110 91 l 1
EndSplineSet
EndChar

StartChar: hyphen
Encoding: 45 45 12
Width: 497
Flags: MW
HStem: 256 62<66 432 66 432>
VStem: 66 366<256 318 256 318>
LayerCount: 2
Fore
SplineSet
66 318 m 1
 432 318 l 1
 432 256 l 1
 66 256 l 1
 66 318 l 1
EndSplineSet
EndChar

StartChar: period
Encoding: 46 46 13
Width: 379
Flags: MW
HStem: 0 125<169.5 204>
VStem: 124 125<45.5 80>
LayerCount: 2
Fore
SplineSet
187 0 m 0
 152 0 124 28 124 63 c 0
 124 97 152 125 187 125 c 0
 221 125 249 97 249 63 c 0
 249 28 221 0 187 0 c 0
EndSplineSet
EndChar

StartChar: slash
Encoding: 47 47 169
Width: 600
Flags: MW
HStem: -125 862<209 402>
VStem: 147 316
LayerCount: 2
Fore
SplineSet
463 718 m 1
 209 -125 l 1
 147 -107 l 1
 402 737 l 1
 463 718 l 1
EndSplineSet
EndChar

StartChar: zero
Encoding: 48 48 138
Width: 609
Flags: MW
HStem: -6 64<259.5 350 259.5 372.5> 641 64<259 351>
VStem: 60 70<250.5 453.5 250.5 471.5> 479 70<250.5 453.5>
LayerCount: 2
Fore
SplineSet
305 -6 m 0
 170 -6 60 114 60 352 c 0
 60 591 170 705 305 705 c 0
 440 705 549 591 549 352 c 0
 549 114 440 -6 305 -6 c 0
305 58 m 0
 395 58 479 149 479 352 c 0
 479 555 397 641 305 641 c 0
 213 641 130 555 130 352 c 0
 130 149 214 58 305 58 c 0
EndSplineSet
EndChar

StartChar: one
Encoding: 49 49 139
Width: 441
Flags: MW
HStem: 0 64<24 184 24 184 254 417>
VStem: 184 70<64 629 629 629>
LayerCount: 2
Fore
SplineSet
24 0 m 1
 24 64 l 1
 184 64 l 1
 184 629 l 1
 32 551 l 1
 32 634 l 1
 191 700 l 1
 254 700 l 1
 254 64 l 1
 417 64 l 1
 417 0 l 1
 24 0 l 1
EndSplineSet
EndChar

StartChar: two
Encoding: 50 50 140
Width: 476
Flags: MW
HStem: 0 70<18 18 115 460> 636 70<200 289.5>
VStem: 372.92 70.55
LayerCount: 2
Fore
SplineSet
18 0 m 1
 18 70 l 1
 122 177 285 342 343 424 c 0
 416 526 348 636 231 636 c 0
 169 636 119 596 100 540 c 1
 31 562 l 1
 59 646 138 706 231 706 c 0
 401 706 509 535 400 383 c 0
 346 308 214 171 115 70 c 1
 460 70 l 1
 460 0 l 1
 18 0 l 1
EndSplineSet
EndChar

StartChar: three
Encoding: 51 51 141
Width: 464
Flags: MW
HStem: -3 64<184.5 262 184.5 282.5> 355 64<185 197 185 197> 640 64<186 247>
VStem: 325 70<501 560.5> 366 70<166.5 247 151 249>
LayerCount: 2
Fore
SplineSet
113 557 m 1xe8
 45 571 l 1
 61 638 127 704 217 704 c 0
 315 704 395 625 395 529 c 0xf0
 395 473 370 422 324 390 c 1
 395 354 436 286 436 208 c 0
 436 94 348 -3 217 -3 c 0
 128 -3 58 53 34 110 c 1
 94 143 l 1
 111 98 152 61 217 61 c 0
 307 61 366 125 366 208 c 0xe8
 366 290 307 355 197 355 c 2
 185 355 l 1
 185 419 l 1
 197 419 l 2
 287 419 325 467 325 529 c 0xf0
 325 592 277 640 217 640 c 0
 155 640 123 598 113 557 c 1xe8
EndSplineSet
EndChar

StartChar: four
Encoding: 52 52 142
Width: 586
Flags: MW
HStem: 152 74<120 392 37 37 462 530>
VStem: 392 70<0 152 226 604 604 604>
LayerCount: 2
Fore
SplineSet
462 0 m 1
 392 0 l 1
 392 152 l 1
 37 152 l 1
 37 226 l 1
 378 700 l 1
 462 700 l 1
 462 226 l 1
 530 226 l 1
 530 152 l 1
 462 152 l 1
 462 0 l 1
120 226 m 1
 392 226 l 1
 392 604 l 1
 120 226 l 1
EndSplineSet
EndChar

StartChar: five
Encoding: 53 53 143
Width: 498
Flags: MW
HStem: -3.44 64.08 380.43 63.95 636 64<184 184 184 425>
VStem: 21 427.62
LayerCount: 2
Fore
SplineSet
184 636 m 1
 133 433 l 1
 183 448 224 446 258 440 c 0
 379 420 466 305 446 183 c 0
 426 61 321 -22 186 0 c 0
 107 13 53 53 21 106 c 1
 81 139 l 1
 106 98 141 73 197 63 c 1
 291 48 362 104 377 193 c 0
 391 280 328 364 247 377 c 0
 203 384 160 384 86 344 c 1
 52 400 l 1
 129 700 l 1
 425 700 l 1
 425 636 l 1
 184 636 l 1
EndSplineSet
EndChar

StartChar: six
Encoding: 54 54 144
Width: 465
Flags: MW
HStem: -3.88 70.37 340.03 70.26
VStem: 28.09 70.37 371.95 70.37
LayerCount: 2
Fore
SplineSet
364 700 m 1
 194 406 l 1
 241 416 293 409 338 383 c 0
 437 326 472 200 415 100 c 0
 358 1 231 -33 132 23 c 0
 33 80 -1 207 55 306 c 1
 56 308 l 1
 283 700 l 1
 364 700 l 1
354 135 m 0
 392 201 369 285 303 322 c 0
 237 360 154 337 116 272 c 1
 79 206 101 122 167 84 c 0
 233 47 317 69 354 135 c 0
EndSplineSet
EndChar

StartChar: seven
Encoding: 55 55 145
Width: 539
Flags: MW
HStem: 630 70<74 407 74 529>
VStem: 35 494
LayerCount: 2
Fore
SplineSet
407 630 m 1
 74 630 l 1
 74 700 l 1
 529 700 l 1
 116 0 l 1
 35 0 l 1
 407 630 l 1
EndSplineSet
EndChar

StartChar: eight
Encoding: 56 56 146
Width: 497
Flags: MW
HStem: -3.24001 64.29 331 64<250 250> 639.83 64.48
VStem: 30.19 69.85 58.76 70.18 368.55 70.41 396.89 69.98
LayerCount: 2
Fore
SplineSet
359 367 m 1xb2
 463 311 498 192 437 96 c 0
 378 2 244 -31 141 22 c 0
 34 78 -1 198 60 296 c 0xb2
 79 326 106 350 139 366 c 1
 59 422 35 525 84 610 c 0
 135 699 254 731 343 680 c 0
 436 627 466 516 413 425 c 0xac
 400 402 381 382 359 367 c 1xb2
145 579 m 0xec
 111 520 132 444 189 411 c 0
 209 400 225 397 251 395 c 1
 295 398 330 417 353 457 c 0
 386 515 366 591 308 624 c 0
 250 657 179 638 145 579 c 0xec
378 130 m 0xf2
 418 194 394 276 323 313 c 0
 300 325 279 329 250 331 c 1
 194 328 147 306 119 262 c 0
 79 198 103 116 173 79 c 0
 246 41 336 64 378 130 c 0xf2
EndSplineSet
EndChar

StartChar: nine
Encoding: 57 57 147
Width: 451
Flags: MW
HStem: 307.43 70.2 634.04 70.55
VStem: 23.08 70.37 349.68 70.2
LayerCount: 2
Fore
SplineSet
77 0 m 1
 256 310 l 1
 212 303 165 310 123 334 c 0
 28 388 -5 509 49 605 c 1
 104 700 225 733 320 678 c 0
 415 624 448 502 394 407 c 2
 390 400 l 1
 158 0 l 1
 77 0 l 1
325 430 m 1
 339 455 l 1
 365 514 343 584 285 617 c 1
 224 653 145 631 110 570 c 0
 75 508 96 430 158 394 c 0
 215 362 287 378 325 430 c 1
EndSplineSet
EndChar

StartChar: colon
Encoding: 58 58 159
Width: 600
Flags: MW
HStem: 0 125<169.5 204> 391 126<169.5 204>
VStem: 124 125<45.5 80 436.5 471.5>
LayerCount: 2
Fore
SplineSet
187 391 m 0
 152 391 124 419 124 454 c 0
 124 489 152 517 187 517 c 0
 221 517 249 489 249 454 c 0
 249 419 221 391 187 391 c 0
187 0 m 0
 152 0 124 28 124 63 c 0
 124 97 152 125 187 125 c 0
 221 125 249 97 249 63 c 0
 249 28 221 0 187 0 c 0
EndSplineSet
EndChar

StartChar: semicolon
Encoding: 59 59 168
Width: 664
Flags: MW
HStem: 391 126<127.5 162.5>
VStem: 82 126<436.5 471.5> 111 71<7 91 -7 91>
LayerCount: 2
Fore
SplineSet
145 391 m 0xc0
 110 391 82 419 82 454 c 0
 82 489 110 517 145 517 c 0
 180 517 208 489 208 454 c 0
 208 419 180 391 145 391 c 0xc0
111 91 m 1xa0
 182 91 l 1
 182 -7 l 1
 122 -126 l 1
 59 -98 l 1
 111 7 l 1
 111 91 l 1xa0
EndSplineSet
EndChar

StartChar: less
Encoding: 60 60 204
Width: 600
Flags: MW
HStem: 94 427<489 489>
VStem: 138 381<157 348 157 267>
LayerCount: 2
Fore
SplineSet
519 459 m 1
 489 521 l 1
 138 348 l 1
 138 267 l 1
 489 94 l 1
 519 157 l 1
 198 308 l 1
 519 459 l 1
EndSplineSet
EndChar

StartChar: equal
Encoding: 61 61 199
Width: 600
Flags: MW
HStem: 128 64<88 520 88 520> 388 64<88 520 88 520>
VStem: 88 432<128 192 128 192 388 452 128 452>
LayerCount: 2
Fore
SplineSet
88 452 m 1
 520 452 l 1
 520 388 l 1
 88 388 l 1
 88 452 l 1
88 192 m 1
 520 192 l 1
 520 128 l 1
 88 128 l 1
 88 192 l 1
EndSplineSet
EndChar

StartChar: greater
Encoding: 62 62 200
Width: 600
Flags: MW
HStem: 94 427<137 137>
VStem: 428 61<308 308>
LayerCount: 2
Fore
SplineSet
428 308 m 1
 108 459 l 1
 137 521 l 1
 489 348 l 1
 489 267 l 1
 137 94 l 1
 108 157 l 1
 428 308 l 1
EndSplineSet
EndChar

StartChar: question
Encoding: 63 63 165
Width: 517
Flags: MW
HStem: 0 125<176.5 211> 644 64
VStem: 131 125<45.5 80> 145 76 327 70
LayerCount: 2
Fore
SplineSet
151 241 m 1xd8
 139 392 l 1
 227 420 320 454 327 539 c 0
 332 602 286 648 218 644 c 0
 151 640 120 581 120 581 c 1
 67 619 l 1
 67 619 101 702 214 708 c 0
 324 714 405 635 397 533 c 0
 388 428 301 378 221 348 c 1
 221 241 l 1
 151 241 l 1xd8
194 0 m 0xe8
 159 0 131 28 131 63 c 0
 131 97 159 125 194 125 c 0
 228 125 256 97 256 63 c 0
 256 28 228 0 194 0 c 0xe8
EndSplineSet
EndChar

StartChar: at
Encoding: 64 64 220
Width: 1110
Flags: MW
HStem: -256 64<443.5 605 443.5 610.5> -27.19 66.19 -21 64<500.5 564> 231 57<556 610.5 536 624.5> 430 64<551.5 612> 681 64<443.5 682.5>
VStem: 60 70<123.5 366 123.5 382.5> 371 70<101.5 163.5 101.5 187> 694 71<211 223 223 223 277 306 306 306> 977 70<194 378>
LayerCount: 2
Fore
SplineSet
788 -129 m 1xbfc0
 825 -183 l 1
 751 -228 658 -256 563 -256 c 0
 285 -256 60 -30 60 245 c 0
 60 520 285 745 563 745 c 0
 842 745 1047 531 1047 257 c 0
 1047 107 979 -11 871 -25 c 0xdfc0
 786 -36 728 -6 705 68 c 1
 661 8 596 -21 532 -21 c 0xbfc0
 421 -21 371 56 371 122 c 0
 371 252 478 288 594 288 c 0
 627 288 663 284 694 277 c 1
 694 306 l 1
 695 306 l 1
 695 314 l 2
 695 388 646 430 578 430 c 0
 525 430 483 402 457 379 c 1
 408 421 l 1
 433 449 489 494 578 494 c 0
 681 494 765 424 765 314 c 2
 765 138 l 1
 767 54 798 30 862 39 c 0xdfc0
 926 47 977 131 977 257 c 0
 977 499 802 681 563 681 c 0
 324 681 130 487 130 245 c 0
 130 2 324 -192 563 -192 c 0
 647 -192 720 -170 788 -129 c 1xbfc0
694 211 m 1
 694 223 l 1
 671 227 641 231 608 231 c 0
 504 231 441 205 441 122 c 0
 441 81 469 43 532 43 c 0xbfc0
 635 43 691 104 694 211 c 1
EndSplineSet
EndChar

StartChar: A
Encoding: 65 65 14
Width: 653
Flags: MW
HStem: 223 64<198 454 198 479 173 454>
VStem: 11 630<0 0>
LayerCount: 2
Fore
SplineSet
85 0 m 1
 11 0 l 1
 285 700 l 1
 366 700 l 1
 641 0 l 1
 566 0 l 1
 479 223 l 1
 173 223 l 1
 85 0 l 1
198 287 m 1
 454 287 l 1
 326 614 l 1
 198 287 l 1
EndSplineSet
EndChar

StartChar: B
Encoding: 66 66 15
Width: 593
Flags: MW
HStem: 0 64<156 346 156 346> 372 64<156 317 156 345 156 317> 636 64<156 315 156 156>
VStem: 86 70<64 64 64 372 436 636> 409 70<513.5 564> 496 70<175 261>
LayerCount: 2
Fore
SplineSet
86 700 m 1
 315 700 l 2
 405 700 479 627 479 536 c 0xfc
 479 491 460 449 430 420 c 1
 510 386 566 308 566 218 c 0
 566 100 471 2 346 0 c 1
 86 0 l 1
 86 700 l 1
156 436 m 1
 317 436 l 1
 366 437 409 481 409 536 c 0
 409 592 365 636 315 636 c 2
 156 636 l 1
 156 436 l 1
156 64 m 1
 346 64 l 1
 433 65 496 132 496 218 c 0xf4
 496 304 428 372 345 372 c 2
 156 372 l 1
 156 64 l 1
EndSplineSet
EndChar

StartChar: C
Encoding: 67 67 16
Width: 656
Flags: MW
HStem: -2 64<298 411 298 423> 637 64<291.5 408>
VStem: 36 70<269.5 423.5 269.5 438.5>
LayerCount: 2
Fore
SplineSet
577 175 m 1
 634 138 l 1
 573 53 477 -2 369 -2 c 0
 185 -2 36 156 36 350 c 0
 36 527 167 701 369 701 c 0
 470 701 560 654 621 578 c 1
 567 538 l 1
 515 602 447 637 369 637 c 0
 214 637 106 497 106 350 c 0
 106 189 227 62 369 62 c 0
 453 62 525 103 577 175 c 1
EndSplineSet
EndChar

StartChar: D
Encoding: 68 68 17
Width: 627
Flags: MW
HStem: 0 64<156 228 156 228> 636 64<156 223 156 156>
VStem: 86 70<64 64 64 636> 509 70<263.5 438>
LayerCount: 2
Fore
SplineSet
86 700 m 1
 223 700 l 2
 472 700 579 553 579 350 c 0
 579 149 465 0 228 0 c 2
 86 0 l 1
 86 700 l 1
156 64 m 1
 228 64 l 2
 421 64 509 177 509 350 c 0
 509 526 427 636 223 636 c 2
 156 636 l 1
 156 64 l 1
EndSplineSet
EndChar

StartChar: E
Encoding: 69 69 18
Width: 570
Flags: MW
HStem: 0 64<156 539 156 539> 322 64<156 464 156 464> 636 64<156 538 156 156>
VStem: 86 70<64 322 386 636>
LayerCount: 2
Fore
SplineSet
86 0 m 1
 86 700 l 1
 538 700 l 1
 538 636 l 1
 156 636 l 1
 156 386 l 1
 464 386 l 1
 464 322 l 1
 156 322 l 1
 156 64 l 1
 539 64 l 1
 539 0 l 1
 86 0 l 1
EndSplineSet
EndChar

StartChar: F
Encoding: 70 70 19
Width: 533
Flags: MW
HStem: 322 64<155 443 155 443> 637 64<155 518 155 155>
VStem: 85 70<0 322 0 386 386 637>
LayerCount: 2
Fore
SplineSet
443 386 m 1
 443 322 l 1
 155 322 l 1
 155 0 l 1
 85 0 l 1
 85 701 l 1
 518 701 l 1
 518 637 l 1
 155 637 l 1
 155 386 l 1
 443 386 l 1
EndSplineSet
EndChar

StartChar: G
Encoding: 71 71 20
Width: 670
Flags: MW
HStem: -2 64<298 405 298 418> 287 64<375 564 375 634> 637 64<298 402.5>
VStem: 36 70<269.5 430 269.5 447> 564 70<158 287 287 287>
LayerCount: 2
Fore
SplineSet
634 351 m 1
 634 138 l 1
 567 43 467 -2 369 -2 c 0
 185 -2 36 155 36 350 c 0
 36 544 185 701 369 701 c 0
 456 701 535 666 594 609 c 1
 545 563 l 1
 495 611 436 637 369 637 c 0
 227 637 106 510 106 350 c 0
 106 189 227 62 369 62 c 0
 441 62 510 91 564 158 c 1
 564 287 l 1
 375 287 l 1
 375 351 l 1
 634 351 l 1
EndSplineSet
EndChar

StartChar: H
Encoding: 72 72 21
Width: 721
Flags: MW
HStem: 322 64<156 565 156 565>
VStem: 86 70<0 322 0 386 386 700> 565 70<0 322 322 322 386 700 0 700>
LayerCount: 2
Fore
SplineSet
565 0 m 1
 565 322 l 1
 156 322 l 1
 156 0 l 1
 86 0 l 1
 86 700 l 1
 156 700 l 1
 156 386 l 1
 565 386 l 1
 565 700 l 1
 635 700 l 1
 635 0 l 1
 565 0 l 1
EndSplineSet
EndChar

StartChar: I
Encoding: 73 73 22
Width: 242
Flags: MW
HStem: 0 700<86 156 86 156>
VStem: 86 70<0 700 0 700>
LayerCount: 2
Fore
SplineSet
86 0 m 1
 86 700 l 1
 156 700 l 1
 156 0 l 1
 86 0 l 1
EndSplineSet
EndChar

StartChar: J
Encoding: 74 74 23
Width: 463
Flags: MW
HStem: -2 64<184 243.5 184 264>
VStem: 33 70<146 179 146 179> 323 71<179 701 179 701>
LayerCount: 2
Fore
SplineSet
394 701 m 1
 394 179 l 1
 395 79 314 -2 214 -2 c 0
 114 -2 33 79 33 179 c 1
 103 179 l 1
 103 113 154 62 214 62 c 0
 273 62 325 113 323 179 c 1
 323 701 l 1
 394 701 l 1
EndSplineSet
EndChar

StartChar: K
Encoding: 75 75 24
Width: 600
Flags: MW
HStem: 0 702<87 157 87 157 87 585 87 498>
VStem: 87 70<0 295 0 319 0 319 387 702>
LayerCount: 2
Fore
SplineSet
498 0 m 1
 223 357 l 1
 157 295 l 1
 157 0 l 1
 87 0 l 1
 87 319 l 1
 86 320 l 1
 87 321 l 1
 87 702 l 1
 157 702 l 1
 157 387 l 1
 182 410 l 1
 181 411 l 1
 187 415 l 1
 492 700 l 1
 590 700 l 1
 273 403 l 1
 585 0 l 1
 498 0 l 1
EndSplineSet
EndChar

StartChar: L
Encoding: 76 76 25
Width: 425
Flags: MW
HStem: 0 64<156 410 156 410>
VStem: 86 70<64 700 64 700 64 700>
LayerCount: 2
Fore
SplineSet
86 700 m 1
 156 700 l 1
 156 64 l 1
 410 64 l 1
 410 0 l 1
 86 0 l 1
 86 700 l 1
EndSplineSet
EndChar

StartChar: M
Encoding: 77 77 26
Width: 861
Flags: MW
HStem: 0 700<86 156 86 162 705 775 705 705>
VStem: 86 70<0 565 0 700> 705 70<0 563 563 563>
LayerCount: 2
Fore
SplineSet
775 700 m 1
 775 0 l 1
 705 0 l 1
 705 563 l 1
 430 48 l 1
 156 565 l 1
 156 0 l 1
 86 0 l 1
 86 700 l 1
 162 700 l 1
 430 194 l 1
 700 700 l 1
 775 700 l 1
EndSplineSet
EndChar

StartChar: N
Encoding: 78 78 27
Width: 725
Flags: MW
HStem: 0 700<86 156 86 164 86 562 568 639 86 639>
VStem: 86 70<0 591 0 700> 568 71<111 700 0 700>
LayerCount: 2
Fore
SplineSet
156 591 m 1
 156 0 l 1
 86 0 l 1
 86 700 l 1
 164 700 l 1
 568 111 l 1
 568 700 l 1
 639 700 l 1
 639 0 l 1
 562 0 l 1
 156 591 l 1
EndSplineSet
EndChar

StartChar: O
Encoding: 79 79 28
Width: 774
Flags: MW
HStem: 0 64<310.5 455 310.5 472> 638 64<309 464>
VStem: 36 70<271.5 430 271.5 446.5> 669 70<261 431>
LayerCount: 2
Fore
SplineSet
387 702 m 0
 581 702 739 545 739 351 c 0
 739 130 557 0 387 0 c 0
 193 0 36 157 36 351 c 0
 36 542 190 702 387 702 c 0
387 638 m 0
 231 638 106 509 106 351 c 0
 106 192 234 64 387 64 c 0
 523 64 669 171 669 351 c 0
 669 511 541 638 387 638 c 0
EndSplineSet
EndChar

StartChar: P
Encoding: 80 80 29
Width: 571
Flags: MW
HStem: 322 64<156 343 156 343> 643 64<156 343 156 156>
VStem: 86 70<0 322 386 643> 466 70<477.5 532>
LayerCount: 2
Fore
SplineSet
86 707 m 1
 343 707 l 2
 396 707 445 685 479 650 c 1
 514 616 536 567 536 514 c 0
 536 409 449 322 343 322 c 2
 156 322 l 1
 156 0 l 1
 86 0 l 1
 86 707 l 1
156 386 m 1
 343 386 l 2
 410 386 466 441 466 514 c 0
 466 550 451 584 430 605 c 0
 404 631 377 643 343 643 c 2
 156 643 l 1
 156 386 l 1
EndSplineSet
EndChar

StartChar: Q
Encoding: 81 81 30
Width: 790
Flags: MW
HStem: 0 64<309.5 412.5 309.5 421.5> 638 64<308 463>
VStem: 35 70<271.5 430 271.5 446.5> 668 70<310 431>
LayerCount: 2
Fore
SplineSet
659 0 m 1
 589 64 l 1
 529 22 457 0 386 0 c 0
 192 0 35 157 35 351 c 0
 35 542 189 702 386 702 c 0
 580 702 738 545 738 351 c 0
 738 249 699 166 641 107 c 1
 756 0 l 1
 659 0 l 1
443 291 m 1
 591 153 l 1
 637 201 668 269 668 351 c 0
 668 511 540 638 386 638 c 0
 230 638 105 509 105 351 c 0
 105 192 233 64 386 64 c 0
 439 64 493 80 540 110 c 1
 344 291 l 1
 443 291 l 1
EndSplineSet
EndChar

StartChar: R
Encoding: 82 82 31
Width: 649
Flags: MW
HStem: 363 64<156 320 156 383> 643 64<156 383 156 156>
VStem: 86 70<0 363 427 643> 485 70<504 565.5>
LayerCount: 2
Fore
SplineSet
320 363 m 1
 156 363 l 1
 156 0 l 1
 86 0 l 1
 86 707 l 1
 383 707 l 2
 477 707 555 629 555 535 c 0
 555 447 487 373 401 364 c 1
 629 0 l 1
 548 0 l 1
 320 363 l 1
156 427 m 1
 383 427 l 2
 439 427 485 473 485 535 c 0
 485 596 439 643 383 643 c 2
 156 643 l 1
 156 427 l 1
EndSplineSet
EndChar

StartChar: S
Encoding: 83 83 32
Width: 491
Flags: MW
HStem: -2 64<198.5 282 198.5 294.5> 638 64<211 278>
VStem: 57 70<497 561.5 497 579.5> 396 70<142.5 236>
LayerCount: 2
Fore
SplineSet
425 625 m 1
 376 580 l 1
 348 607 313 638 243 638 c 0
 179 638 127 594 127 529 c 0
 127 465 178 437 257 405 c 0
 367 360 466 327 466 184 c 0
 466 58 353 -2 236 -2 c 0
 136 -2 61 49 22 92 c 1
 74 135 l 1
 108 97 161 62 236 62 c 0
 328 62 396 101 396 184 c 0
 396 288 317 310 230 346 c 0
 151 378 57 421 57 529 c 0
 57 630 145 702 243 702 c 0
 341 702 398 652 425 625 c 1
EndSplineSet
EndChar

StartChar: T
Encoding: 84 84 33
Width: 516
Flags: MW
HStem: 636 64<6 223 6 510 293 293 293 510>
VStem: 223 70<0 636>
LayerCount: 2
Fore
SplineSet
293 0 m 1
 223 0 l 1
 223 636 l 1
 6 636 l 1
 6 700 l 1
 510 700 l 1
 510 636 l 1
 293 636 l 1
 293 0 l 1
EndSplineSet
EndChar

StartChar: V
Encoding: 86 86 35
Width: 645
Flags: MW
HStem: 0 700<14 286 14 360>
VStem: 14 617<700 700>
LayerCount: 2
Fore
SplineSet
286 0 m 1
 14 700 l 1
 88 700 l 1
 323 96 l 1
 557 700 l 1
 631 700 l 1
 360 0 l 1
 286 0 l 1
EndSplineSet
EndChar

StartChar: W
Encoding: 87 87 36
Width: 963
Flags: MW
HStem: 0 700<23 269 23 197 23 766 23 693>
VStem: 23 917<700 700>
LayerCount: 2
Fore
SplineSet
940 700 m 1
 766 0 l 1
 693 0 l 1
 481 597 l 1
 269 0 l 1
 197 0 l 1
 23 700 l 1
 95 700 l 1
 238 121 l 1
 444 700 l 1
 518 700 l 1
 724 120 l 1
 868 700 l 1
 940 700 l 1
EndSplineSet
EndChar

StartChar: X
Encoding: 88 88 37
Width: 777
Flags: MW
HStem: 0 700<103 105 18 190 672 672 672 678 103 759>
VStem: 18 741<0 0>
LayerCount: 2
Fore
SplineSet
105 0 m 1
 18 0 l 1
 343 404 l 1
 103 700 l 1
 190 700 l 1
 390 454 l 1
 591 700 l 1
 678 700 l 1
 434 400 l 1
 759 0 l 1
 672 0 l 1
 387 351 l 1
 105 0 l 1
EndSplineSet
EndChar

StartChar: Y
Encoding: 89 89 38
Width: 638
Flags: MW
HStem: 0 700<4 354 4 284>
VStem: 284 70<0 339 0 339>
LayerCount: 2
Fore
SplineSet
548 700 m 1
 634 700 l 1
 354 339 l 1
 354 0 l 1
 284 0 l 1
 284 339 l 1
 4 700 l 1
 90 700 l 1
 319 405 l 1
 548 700 l 1
EndSplineSet
EndChar

StartChar: Z
Encoding: 90 90 39
Width: 626
Flags: MW
HStem: 0 64<150 603 150 603> 636 64<82 482 82 611>
VStem: 20 591
LayerCount: 2
Fore
SplineSet
603 0 m 1
 20 0 l 1
 482 636 l 1
 82 636 l 1
 82 700 l 1
 611 700 l 1
 150 64 l 1
 603 64 l 1
 603 0 l 1
EndSplineSet
EndChar

StartChar: bracketleft
Encoding: 91 91 173
Width: 330
Flags: MW
HStem: -142 64<110 255 110 255> 718 64<110 255 110 110>
VStem: 40 70<-78 -78 -78 718>
LayerCount: 2
Fore
SplineSet
110 -78 m 1
 255 -78 l 1
 255 -142 l 1
 40 -142 l 1
 40 782 l 1
 255 782 l 1
 255 718 l 1
 110 718 l 1
 110 -78 l 1
EndSplineSet
EndChar

StartChar: backslash
Encoding: 92 92 157
Width: 600
Flags: MW
HStem: -109 820<115 342>
VStem: 50 358
LayerCount: 2
Fore
SplineSet
115 711 m 1
 408 -87 l 1
 342 -109 l 1
 50 689 l 1
 115 711 l 1
EndSplineSet
EndChar

StartChar: bracketright
Encoding: 93 93 174
Width: 330
Flags: MW
HStem: -142 924<75 290 75 290>
VStem: 75 215<-142 -78 -142 782 718 718 718 782>
LayerCount: 2
Fore
SplineSet
75 -78 m 1
 75 -142 l 1
 290 -142 l 1
 290 782 l 1
 75 782 l 1
 75 718 l 1
 220 718 l 1
 220 -78 l 1
 75 -78 l 1
EndSplineSet
EndChar

StartChar: asciicircum
Encoding: 94 94 219
Width: 600
Flags: MW
HStem: 395 386<145 274 274 404>
VStem: 83 383<425 425>
LayerCount: 2
Fore
SplineSet
145 395 m 1
 83 425 l 1
 274 781 l 1
 466 425 l 1
 404 395 l 1
 274 636 l 1
 145 395 l 1
EndSplineSet
EndChar

StartChar: underscore
Encoding: 95 95 170
Width: 600
Flags: MW
HStem: -127 64<35 548 35 548>
VStem: 35 513<-127 -63 -127 -63>
LayerCount: 2
Fore
SplineSet
548 -127 m 1
 35 -127 l 1
 35 -63 l 1
 548 -63 l 1
 548 -127 l 1
EndSplineSet
EndChar

StartChar: grave
Encoding: 96 96 240
Width: 600
Flags: MW
HStem: 554 154
VStem: 142 219<614 634>
LayerCount: 2
Fore
SplineSet
361 614 m 1
 345 554 l 1
 142 634 l 1
 164 708 l 1
 361 614 l 1
EndSplineSet
EndChar

StartChar: b
Encoding: 98 98 41
Width: 587
Flags: MW
HStem: -6 64<274.5 358.5 266 379.5> 454 64<267 352>
VStem: 76 70<0 59 158 356 453 700> 488 70<197.5 310>
LayerCount: 2
Fore
SplineSet
146 700 m 1
 146 453 l 1
 181 489 232 518 302 518 c 0
 443 518 558 399 558 254 c 0
 558 108 450 -6 309 -6 c 0
 240 -6 185 18 146 59 c 1
 146 0 l 1
 76 0 l 1
 76 700 l 1
 146 700 l 1
146 356 m 1
 146 158 l 1
 166 107 223 58 309 58 c 0
 408 58 488 141 488 254 c 0
 488 366 402 454 302 454 c 0
 214 454 163 403 146 356 c 1
EndSplineSet
EndChar

StartChar: c
Encoding: 99 99 42
Width: 515
Flags: MW
HStem: -11 64<247.5 328 247.5 339> 452 64<246.5 325.5>
VStem: 37 70<197 306 197 322.5>
LayerCount: 2
Fore
SplineSet
444 119 m 1
 496 76 l 1
 448 23 378 -11 300 -11 c 0
 155 -11 37 107 37 253 c 0
 37 392 151 516 300 516 c 0
 371 516 435 488 482 442 c 1
 434 396 l 1
 396 433 351 452 300 452 c 0
 193 452 107 359 107 253 c 0
 107 141 195 53 300 53 c 0
 356 53 405 76 444 119 c 1
EndSplineSet
EndChar

StartChar: d
Encoding: 100 100 43
Width: 564
Flags: MW
HStem: -6 64<236.5 320.5> 454 64<242 327 221.5 336>
VStem: 37 70<197.5 310 197.5 326.5> 449 70<0 59 59 59 158 356 356 356 453 700>
LayerCount: 2
Fore
SplineSet
519 0 m 1
 449 0 l 1
 449 59 l 1
 410 18 355 -6 286 -6 c 0
 145 -6 37 108 37 254 c 0
 37 399 151 518 292 518 c 0
 362 518 413 489 449 453 c 1
 449 700 l 1
 519 700 l 1
 519 0 l 1
449 158 m 1
 449 356 l 1
 432 403 380 454 292 454 c 0
 192 454 107 366 107 254 c 0
 107 141 187 58 286 58 c 0
 371 58 428 107 449 158 c 1
EndSplineSet
EndChar

StartChar: e
Encoding: 101 101 44
Width: 553
Flags: MW
HStem: -10 64<232 327 232 341.5> 247 61<114 439 114 502 108 439> 454 64<241 328 206.5 337>
VStem: 38 70<247 247 247 320> 439 68.04
LayerCount: 2
Fore
SplineSet
448 154 m 1
 506 107 l 1
 466 42 392 -10 291 -10 c 0
 122 -10 38 122 38 254 c 0
 38 386 123 518 290 518 c 0
 366 518 425 491 465 444 c 0
 500 402 516 348 502 247 c 1
 108 247 l 1
 111 143 173 54 291 54 c 0
 363 54 417 92 448 154 c 1
114 308 m 1
 439 308 l 1
 449 395 384 454 290 454 c 0
 192 454 132 390 114 308 c 1
EndSplineSet
EndChar

StartChar: f
Encoding: 102 102 45
Width: 344
Flags: MW
HStem: 443 64<9 103 9 103 173 316> 653 62<210.5 245.5>
VStem: 103 70<0 443 0 443 507 561>
LayerCount: 2
Fore
SplineSet
316 443 m 1
 173 443 l 1
 173 0 l 1
 103 0 l 1
 103 443 l 1
 9 443 l 1
 9 507 l 1
 103 507 l 1
 103 561 l 2
 103 623 125 715 236 715 c 0
 259 715 295 711 342 684 c 1
 308 628 l 1
 272 649 255 653 236 653 c 0
 185 653 173 612 173 561 c 2
 173 507 l 1
 316 507 l 1
 316 443 l 1
EndSplineSet
EndChar

StartChar: g
Encoding: 103 103 46
Width: 561
Flags: MW
HStem: -301 64<196 311 196 347> -20 64<271 337.5 270 338.5> 147 64<258.5 302.5 242 322.5> 436 58.5 446 64<242 287.5 222 302.5>
VStem: 33 67<-120 -117.5> 38.87 70.13 90 70<306.5 361.5 296 379> 385 70<296 349> 455 70<-152 -68.5>
LayerCount: 2
Fore
SplineSet
511 436 m 1xf240
 420 436 l 1
 442 406 455 369 455 329 c 0
 455 228 373 147 272 147 c 0
 245 147 220 153 196 163 c 1
 171 171 109 159 109 104 c 0
 109 73 138 43 209 43 c 0xf280
 230 43 256 44 284 44 c 0
 391 44 525 30 525 -103 c 0
 525 -209 444 -301 250 -301 c 0
 95 -301 33 -224 33 -145 c 0xf440
 33 -90 63 -35 112 -3 c 1
 42 29 31 89 43 134 c 0xf240
 56 184 93 206 133 211 c 1
 106 243 90 284 90 329 c 0
 90 429 172 510 272 510 c 0xe940
 303 510 333 503 358 489 c 1
 522 500 l 1
 511 436 l 1xf240
272 446 m 0xe980
 212 446 160 394 160 329 c 0
 160 263 212 211 272 211 c 0
 333 211 385 263 385 329 c 0
 385 394 333 446 272 446 c 0xe980
251 -237 m 0xf440
 371 -237 455 -197 455 -107 c 0
 455 -30 380 -20 297 -20 c 0
 245 -20 201 -23 166 -18 c 1
 126 -34 100 -76 100 -120 c 0
 99 -178 141 -237 251 -237 c 0xf440
EndSplineSet
EndChar

StartChar: h
Encoding: 104 104 47
Width: 561
Flags: MW
HStem: 450 63<253.5 323.5>
VStem: 76 70<0 352 452 700> 425 70<0 285 0 340>
LayerCount: 2
Fore
SplineSet
146 700 m 1
 146 452 l 1
 181 491 227 513 280 513 c 0
 406 513 495 428 495 285 c 2
 495 0 l 1
 425 0 l 1
 425 285 l 2
 425 395 367 450 280 450 c 0
 212 450 164 402 146 352 c 1
 146 0 l 1
 76 0 l 1
 76 700 l 1
 146 700 l 1
EndSplineSet
EndChar

StartChar: i
Encoding: 105 105 48
Width: 205
Flags: MW
HStem: 0 650<68 115.5 90.5 115.5 90.5 138>
VStem: 68 70<0 507 0 507>
LayerCount: 2
Fore
SplineSet
56 604 m 0
 56 579 78 557 103 557 c 0
 128 557 149 579 149 604 c 0
 149 629 128 650 103 650 c 0
 78 650 56 629 56 604 c 0
68 0 m 1
 68 507 l 1
 138 507 l 1
 138 0 l 1
 68 0 l 1
EndSplineSet
EndChar

StartChar: j
Encoding: 106 106 49
Width: 224
Flags: MW
HStem: -204 64<-50 -13.5 -50 4>
VStem: 86 70<-9 507>
LayerCount: 2
Fore
SplineSet
75 604 m 0
 75 578 96 557 121 557 c 0
 147 557 168 578 168 604 c 0
 168 629 146 650 121 650 c 0
 96 650 75 629 75 604 c 0
156 507 m 1
 156 -9 l 2
 156 -136 58 -204 -50 -204 c 1
 -50 -140 l 1
 23 -140 86 -95 86 -9 c 2
 86 507 l 1
 156 507 l 1
EndSplineSet
EndChar

StartChar: k
Encoding: 107 107 50
Width: 488
Flags: MW
HStem: 0 700<76 146 76 146 76 456 76 375>
VStem: 76 70<0 252 335 700>
LayerCount: 2
Fore
SplineSet
375 0 m 1
 194 290 l 1
 146 252 l 1
 146 0 l 1
 76 0 l 1
 76 700 l 1
 146 700 l 1
 146 335 l 1
 356 500 l 1
 459 500 l 1
 248 333 l 1
 456 0 l 1
 375 0 l 1
EndSplineSet
EndChar

StartChar: l
Encoding: 108 108 51
Width: 224
Flags: MW
HStem: 0 700<76 146 76 146>
VStem: 76 70<0 700 0 700>
LayerCount: 2
Fore
SplineSet
146 700 m 1
 146 0 l 1
 76 0 l 1
 76 700 l 1
 146 700 l 1
EndSplineSet
EndChar

StartChar: m
Encoding: 109 109 52
Width: 880
Flags: MW
HStem: 450 63<568 642.5>
VStem: 76 70<0 350 456 507> 409 70<0 291 0 344.5> 744 70<0 287 0 342>
LayerCount: 2
Fore
SplineSet
146 507 m 1
 146 456 l 1
 181 493 229 513 279 513 c 0
 351 513 410 483 445 427 c 1
 476 477 530 513 599 513 c 0
 725 513 814 430 814 287 c 2
 814 0 l 1
 744 0 l 1
 744 287 l 2
 744 397 686 450 599 450 c 0
 537 450 492 410 471 365 c 1
 476 342 479 318 479 291 c 2
 479 0 l 1
 409 0 l 1
 409 291 l 2
 409 398 356 449 279 449 c 0
 227 449 169 416 146 350 c 1
 146 0 l 1
 76 0 l 1
 76 507 l 1
 146 507 l 1
EndSplineSet
EndChar

StartChar: n
Encoding: 110 110 53
Width: 561
Flags: MW
HStem: 450 63<259 330.5>
VStem: 76 70<0 325 444 507> 432 70<0 281 0 336>
LayerCount: 2
Fore
SplineSet
146 507 m 1
 146 444 l 1
 182 487 231 513 287 513 c 0
 413 513 502 424 502 281 c 2
 502 0 l 1
 432 0 l 1
 432 281 l 2
 432 391 374 450 287 450 c 0
 207 450 156 383 146 325 c 1
 146 0 l 1
 76 0 l 1
 76 507 l 1
 146 507 l 1
EndSplineSet
EndChar

StartChar: o
Encoding: 111 111 54
Width: 591
Flags: MW
HStem: 0 64<244 346 244 366.5> 454 64<244.5 346>
VStem: 37 70<204.5 313.5 204.5 330.5> 483 70<205 313.5>
LayerCount: 2
Fore
SplineSet
553 259 m 0
 553 117 438 0 295 0 c 0
 153 0 37 116 37 259 c 0
 37 402 154 518 295 518 c 0
 437 518 553 402 553 259 c 0
483 259 m 0
 483 368 397 454 295 454 c 0
 194 454 107 368 107 259 c 0
 107 150 193 64 295 64 c 0
 397 64 483 151 483 259 c 0
EndSplineSet
EndChar

StartChar: p
Encoding: 112 112 55
Width: 596
Flags: MW
HStem: -6 64<273 356.5> 454 64<266 351>
VStem: 75 70<-200 58 157 358 454 500> 486 70<197.5 310>
LayerCount: 2
Fore
SplineSet
145 500 m 1
 145 454 l 1
 180 490 231 518 301 518 c 0
 442 518 556 399 556 254 c 0
 556 108 448 -6 307 -6 c 0
 239 -6 184 18 145 58 c 1
 145 -200 l 1
 75 -200 l 1
 75 500 l 1
 145 500 l 1
145 358 m 1
 145 157 l 1
 166 106 223 58 307 58 c 0
 406 58 486 141 486 254 c 0
 486 366 401 454 301 454 c 0
 214 454 163 405 145 358 c 1
EndSplineSet
EndChar

StartChar: q
Encoding: 113 113 56
Width: 596
Flags: MW
HStem: -6 64<237.5 321> 454 64<243 328 222.5 336.5>
VStem: 38 70<197.5 310 197.5 326.5> 449 70<-200 58 58 58 157 358 358 358 454 500>
LayerCount: 2
Fore
SplineSet
519 -200 m 1
 449 -200 l 1
 449 58 l 1
 410 18 355 -6 287 -6 c 0
 146 -6 38 108 38 254 c 0
 38 399 152 518 293 518 c 0
 363 518 414 490 449 454 c 1
 449 500 l 1
 519 500 l 1
 519 -200 l 1
449 157 m 1
 449 358 l 1
 431 405 380 454 293 454 c 0
 193 454 108 366 108 254 c 0
 108 141 188 58 287 58 c 0
 371 58 428 106 449 157 c 1
EndSplineSet
EndChar

StartChar: r
Encoding: 114 114 57
Width: 355
Flags: MW
HStem: 449 64<243.5 273.5>
VStem: 76 70<0 306 449 509>
LayerCount: 2
Fore
SplineSet
146 509 m 1
 146 449 l 1
 174 498 221 513 266 513 c 0
 294 513 320 506 343 497 c 1
 307 435 l 1
 297 443 281 449 266 449 c 0
 210 449 151 401 146 306 c 1
 146 0 l 1
 76 0 l 1
 76 509 l 1
 146 509 l 1
EndSplineSet
EndChar

StartChar: s
Encoding: 115 115 58
Width: 421
Flags: MW
HStem: -5 64<184.5 249 184.5 260> 445 63
VStem: 61 70 323 70<114 171>
LayerCount: 2
Fore
SplineSet
362 436 m 1
 313 394 l 1
 285 424 257 442 212 445 c 1
 162 447 129 417 131 376 c 0
 133 338 165 326 230 303 c 0
 273 288 393 262 393 141 c 0
 393 41 302 -5 218 -5 c 0
 125 -5 74 36 30 82 c 1
 81 126 l 1
 118 87 151 59 218 59 c 0
 280 59 323 87 323 141 c 0
 323 201 272 221 229 235 c 1
 145 265 65 287 61 373 c 0
 57 450 128 513 216 508 c 0
 277 505 320 481 362 436 c 1
EndSplineSet
EndChar

StartChar: t
Encoding: 116 116 59
Width: 338
Flags: MW
HStem: -2 61.64 443 64<6 86 6 86 156 313>
VStem: 86 70<155 443 507 700>
LayerCount: 2
Fore
SplineSet
295 84 m 1
 327 27 l 1
 307 13 271 1 244 -2 c 0
 100 -18 86 77 86 155 c 2
 86 443 l 1
 6 443 l 1
 6 507 l 1
 86 507 l 1
 86 700 l 1
 156 700 l 1
 156 507 l 1
 313 507 l 1
 313 443 l 1
 156 443 l 1
 156 155 l 2
 156 98 165 48 244 62 c 0
 261 65 280 73 295 84 c 1
EndSplineSet
EndChar

StartChar: v
Encoding: 118 118 61
Width: 469
Flags: MW
HStem: 0 500<10 249 10 219>
VStem: 10 449<500 500>
LayerCount: 2
Fore
SplineSet
10 500 m 1
 85 500 l 1
 234 143 l 1
 384 500 l 1
 459 500 l 1
 249 0 l 1
 219 0 l 1
 10 500 l 1
EndSplineSet
EndChar

StartChar: w
Encoding: 119 119 62
Width: 680
Flags: MW
HStem: 0 500<15 217 15 187 15 493 15 463>
VStem: 15 650<500 500>
LayerCount: 2
Fore
SplineSet
15 500 m 1
 88 500 l 1
 202 170 l 1
 316 500 l 1
 364 500 l 1
 478 170 l 1
 592 500 l 1
 665 500 l 1
 493 0 l 1
 463 0 l 1
 341 360 l 1
 217 0 l 1
 187 0 l 1
 15 500 l 1
EndSplineSet
EndChar

StartChar: x
Encoding: 120 120 63
Width: 548
Flags: MW
HStem: 0 500<21 103 15 110 445 527 21 533 445 445>
VStem: 15 518<0 0>
LayerCount: 2
Fore
SplineSet
110 500 m 1
 274 306 l 1
 439 500 l 1
 527 500 l 1
 318 254 l 1
 533 0 l 1
 445 0 l 1
 274 201 l 1
 103 0 l 1
 15 0 l 1
 230 254 l 1
 21 500 l 1
 110 500 l 1
EndSplineSet
EndChar

StartChar: y
Encoding: 121 121 64
Width: 593
Flags: MW
HStem: -200 700<9 179 9 99>
VStem: 9 579<500 500>
LayerCount: 2
Fore
SplineSet
260 75 m 1
 9 500 l 1
 90 500 l 1
 300 143 l 1
 509 500 l 1
 588 500 l 1
 179 -200 l 1
 99 -200 l 1
 260 75 l 1
EndSplineSet
EndChar

StartChar: z
Encoding: 122 122 65
Width: 539
Flags: MW
HStem: 0 64<159 481 159 481> 436 64<67 386 67 481>
VStem: 62 419<0 52 52 52>
LayerCount: 2
Fore
SplineSet
481 0 m 1
 62 0 l 1
 62 52 l 1
 386 436 l 1
 67 436 l 1
 67 500 l 1
 481 500 l 1
 481 454 l 1
 159 64 l 1
 481 64 l 1
 481 0 l 1
EndSplineSet
EndChar

StartChar: braceleft
Encoding: 123 123 171
Width: 309
Flags: MW
HStem: -162 63<205 233.5 205 237> 286 64<20 49.5> 734 63<205.5 235>
VStem: 85 76
LayerCount: 2
Fore
SplineSet
273 -86 m 1
 304 -144 l 1
 304 -144 261 -162 213 -162 c 0
 153 -162 85 -133 85 -3 c 0
 85 60 91 121 91 169 c 0
 91 240 79 286 20 286 c 1
 20 350 l 1
 79 350 91 397 91 467 c 0
 91 516 85 576 85 640 c 0
 85 770 157 797 218 797 c 0
 260 797 297 783 297 783 c 1
 280 721 l 1
 273 723 248 734 222 734 c 0
 189 734 155 716 155 640 c 0
 155 588 161 529 161 474 c 0
 161 410 153 353 117 318 c 1
 153 284 161 226 161 163 c 0
 161 108 155 48 155 -3 c 0
 155 -81 189 -99 221 -99 c 0
 246 -99 270 -88 273 -86 c 1
EndSplineSet
EndChar

StartChar: bar
Encoding: 124 124 221
Width: 600
Flags: MW
HStem: -164 933<292 362 292 362>
VStem: 292 70<-164 769 -164 769>
LayerCount: 2
Fore
SplineSet
292 -164 m 1
 292 769 l 1
 362 769 l 1
 362 -164 l 1
 292 -164 l 1
EndSplineSet
EndChar

StartChar: braceright
Encoding: 125 125 172
Width: 309
Flags: MW
HStem: -162 959<72 122 70.5 126>
VStem: 5 284
LayerCount: 2
Fore
SplineSet
36 -86 m 1
 5 -144 l 1
 5 -144 48 -162 96 -162 c 0
 156 -162 224 -133 224 -3 c 0
 224 60 218 121 218 169 c 0
 218 240 230 286 289 286 c 1
 289 350 l 1
 230 350 218 397 218 467 c 0
 218 516 224 576 224 640 c 0
 224 770 152 797 92 797 c 0
 49 797 12 783 12 783 c 1
 29 721 l 1
 36 723 61 734 87 734 c 0
 120 734 154 716 154 640 c 0
 154 588 148 529 148 474 c 0
 148 410 156 353 193 318 c 1
 156 284 148 226 148 163 c 0
 148 108 154 48 154 -3 c 0
 154 -81 120 -99 88 -99 c 0
 63 -99 40 -88 36 -86 c 1
EndSplineSet
EndChar

StartChar: asciitilde
Encoding: 126 126 197
Width: 600
Flags: MW
HStem: 254 65<388.5 446.5 388.5 453.5> 403 66<186 245>
VStem: 77 70<332.5 357.5 332.5 378> 485 71<364.5 386.5>
LayerCount: 2
Fore
SplineSet
152 306 m 1
 86 284 l 1
 80 301 77 319 77 337 c 0
 77 419 136 469 208 469 c 0
 320 469 350 319 427 319 c 0
 466 319 485 349 485 380 c 0
 485 393 482 406 475 417 c 1
 536 450 l 1
 549 428 556 403 556 378 c 0
 556 295 485 254 422 254 c 0
 311 254 285 403 205 403 c 0
 167 403 147 377 147 338 c 0
 147 327 148 316 152 306 c 1
EndSplineSet
EndChar

StartChar: exclamdown
Encoding: 161 161 162
Width: 600
Flags: MW
HStem: 550 115<190 224.5 190 242 172 224.5>
VStem: 145 125<711 745.5>
LayerCount: 2
Fore
SplineSet
207 791 m 0
 173 791 145 763 145 728 c 0
 145 694 173 665 207 665 c 0
 242 665 270 694 270 728 c 0
 270 763 242 791 207 791 c 0
242 550 m 1
 172 550 l 1
 154 83 l 1
 260 83 l 1
 242 550 l 1
EndSplineSet
EndChar

StartChar: cent
Encoding: 162 162 191
Width: 559
Flags: MW
HStem: -8 152<265 335 265 265> 526 149<265 333.5>
VStem: 60 70<282 384.5 282 393.5> 265 70<-8 81 -8 83 -8 83 588 675>
LayerCount: 2
Fore
SplineSet
448 219 m 1
 505 182 l 1
 468 131 404 90 335 81 c 1
 335 -8 l 1
 265 -8 l 1
 265 83 l 1
 147 104 60 209 60 335 c 0
 60 452 139 566 265 587 c 1
 265 675 l 1
 335 675 l 1
 335 588 l 1
 399 580 459 545 496 500 c 1
 441 459 l 1
 408 501 360 526 307 526 c 0
 203 526 130 434 130 335 c 0
 130 229 211 144 307 144 c 0
 364 144 415 172 448 219 c 1
EndSplineSet
EndChar

StartChar: sterling
Encoding: 163 163 194
Width: 600
Flags: MW
HStem: -26 64<385 480.5 385 511.5> 310 64<20 104 20 128 20 104 204 204 204 410> 670 64
VStem: 82.88 69.46 163.5 69.17
LayerCount: 2
Fore
SplineSet
528 90 m 1
 596 73 l 1
 592 61 581 -26 442 -26 c 0
 305 -26 264 59 181 59 c 0
 99 59 81 -7 81 -7 c 1
 13 11 l 1
 13 11 40 108 154 122 c 1
 166 158 173 216 137 290 c 1
 128 310 l 1xf8
 20 310 l 1
 20 374 l 1
 104 374 l 1
 52 547 86 744 319 734 c 0
 368 732 430 712 462 674 c 1
 409 632 l 1
 387 658 354 668 316 670 c 0xf0
 148 677 125 522 177 374 c 1
 410 374 l 1
 410 310 l 1
 204 310 l 1
 240 230 236 164 225 119 c 1xf8
 305 101 328 38 442 38 c 0
 519 38 523 73 528 90 c 1
EndSplineSet
EndChar

StartChar: currency
Encoding: 164 164 192
Width: 720
Flags: MW
HStem: 139 64<347 395> 509 64<347.5 395 347.5 411>
VStem: 154 70<332.5 380> 519 70<332.5 380 332.5 399>
LayerCount: 2
Fore
SplineSet
661 599 m 1
 546 485 l 1
 573 449 589 404 589 356 c 0
 589 309 573 265 547 229 c 1
 661 115 l 1
 611 70 l 1
 500 181 l 1
 464 155 419 139 371 139 c 0
 323 139 279 155 243 181 c 1
 132 70 l 1
 82 115 l 1
 195 229 l 1
 169 264 154 309 154 356 c 0
 154 404 170 449 196 485 c 1
 82 599 l 1
 132 645 l 1
 244 532 l 1
 280 558 324 573 371 573 c 0
 419 573 463 558 499 532 c 1
 611 645 l 1
 661 599 l 1
371 203 m 0
 451 203 519 271 519 356 c 0
 519 442 451 509 371 509 c 0
 292 509 224 442 224 356 c 0
 224 271 292 203 371 203 c 0
EndSplineSet
EndChar

StartChar: yen
Encoding: 165 165 195
Width: 600
Flags: MW
HStem: 139 64<97 284 97 284 354 527> 290 64<97 254 97 284 97 254 369 527>
VStem: 284 70<0 139 0 139 203 290>
LayerCount: 2
Fore
SplineSet
527 290 m 1
 354 290 l 1
 354 203 l 1
 527 203 l 1
 527 139 l 1
 354 139 l 1
 354 0 l 1
 284 0 l 1
 284 139 l 1
 97 139 l 1
 97 203 l 1
 284 203 l 1
 284 290 l 1
 97 290 l 1
 97 354 l 1
 254 354 l 1
 9 670 l 1
 64 709 l 1
 312 390 l 1
 559 709 l 1
 615 670 l 1
 369 354 l 1
 527 354 l 1
 527 290 l 1
EndSplineSet
EndChar

StartChar: brokenbar
Encoding: 166 166 222
Width: 600
Flags: MW
HStem: -69 819<163 233 163 233>
VStem: 163 70<-69 258 -69 258 424 750>
LayerCount: 2
Fore
SplineSet
163 424 m 1
 163 750 l 1
 233 750 l 1
 233 424 l 1
 163 424 l 1
163 -69 m 1
 163 258 l 1
 233 258 l 1
 233 -69 l 1
 163 -69 l 1
EndSplineSet
EndChar

StartChar: section
Encoding: 167 167 229
Width: 600
Flags: MW
HStem: -120 64<254.5 339.5 254.5 351.5> 716 64
VStem: 100 70 455 70<17.5 84 -6.5 99.5 277.5 340.5>
LayerCount: 2
Fore
SplineSet
482 692 m 1
 428 651 l 1
 424 655 377 711 295 716 c 1
 220 719 164 668 170 604 c 0
 176 544 237 521 307 494 c 0
 377 467 525 433 525 298 c 0
 525 247 502 205 469 176 c 1
 501 148 525 111 525 57 c 0
 525 -70 404 -120 299 -120 c 0
 181 -120 96 -47 70 -6 c 1
 129 28 l 1
 150 -5 210 -56 299 -56 c 0
 380 -56 455 -22 455 57 c 0
 455 142 355 166 282 194 c 0
 210 222 109 260 100 358 c 0
 95 414 118 463 159 496 c 1
 128 521 105 554 100 599 c 1
 91 705 181 786 299 780 c 0
 412 774 480 694 482 692 c 1
170 363 m 1
 176 304 237 281 307 253 c 0
 334 243 373 231 410 213 c 1
 438 231 455 257 455 298 c 0
 455 383 355 406 282 434 c 0
 263 442 242 450 222 459 c 1
 188 440 167 405 170 363 c 1
EndSplineSet
EndChar

StartChar: dieresis
Encoding: 168 168 238
Width: 391
Flags: MW
HStem: 562 93<45.5 70.5 325.5 350.5>
VStem: 12 372<596.5 621.5>
LayerCount: 2
Fore
SplineSet
12 609 m 0
 12 584 33 562 58 562 c 0
 83 562 105 584 105 609 c 0
 105 634 83 655 58 655 c 0
 33 655 12 634 12 609 c 0
291 609 m 0
 291 584 313 562 338 562 c 0
 363 562 384 584 384 609 c 0
 384 634 363 655 338 655 c 0
 313 655 291 634 291 609 c 0
EndSplineSet
EndChar

StartChar: copyright
Encoding: 169 169 223
Width: 817
Flags: MW
HStem: -19 64<354.5 491 354.5 509.5> 150 64<378.5 433 378.5 445> 499 64<375.5 432.5> 655 64<325 464.5>
VStem: 37 70<319.5 435 319.5 450.5> 215 70<316.5 395 316.5 408> 709 70<265 377.5>
LayerCount: 2
Fore
SplineSet
92 156 m 0
 57 213 37 280 37 350 c 0
 37 551 206 719 408 719 c 0
 547 719 672 639 734 527 c 0
 763 475 779 413 779 350 c 0
 779 149 611 -19 408 -19 c 0
 276 -19 156 53 92 156 c 0
152 190 m 0
 206 101 301 45 408 45 c 0
 574 45 709 180 709 350 c 0
 709 405 696 452 673 496 c 0
 620 593 521 655 408 655 c 0
 242 655 107 520 107 350 c 0
 107 289 123 237 152 190 c 0
515 270 m 1
 572 233 l 1
 537 185 477 150 413 150 c 0
 306 150 215 246 215 357 c 0
 215 459 297 563 413 563 c 0
 473 563 530 533 564 490 c 1
 510 450 l 1
 483 483 452 499 413 499 c 0
 338 499 285 433 285 357 c 0
 285 276 344 214 413 214 c 0
 453 214 489 235 515 270 c 1
EndSplineSet
EndChar

StartChar: ordfeminine
Encoding: 170 170 136
Width: 373
Flags: MW
HStem: 441 54<132 167> 601 50<166 197.5 151 206> 727 55<161.5 196.5>
VStem: 37 64<526 563 526 581.5> 243 64<445 474 474 474 646 661 445 682>
LayerCount: 2
Fore
SplineSet
102 691 m 1
 58 728 l 1
 69 742 110 782 178 782 c 0
 248 782 307 733 307 661 c 2
 307 445 l 1
 243 445 l 1
 243 474 l 1
 218 454 185 441 149 441 c 0
 73 441 37 496 37 538 c 0
 37 625 113 651 189 651 c 0
 206 651 225 649 243 646 c 1
 243 661 l 2
 243 703 215 727 178 727 c 0
 145 727 120 708 102 691 c 1
243 597 m 1
 229 599 214 601 198 601 c 0
 134 601 101 588 101 538 c 0
 101 514 115 495 149 495 c 0
 208 495 241 531 243 597 c 1
EndSplineSet
EndChar

StartChar: guillemotleft
Encoding: 171 171 180
Width: 600
Flags: MW
HStem: 67 412<237 237 237 423>
VStem: 29 446<110 273>
LayerCount: 2
Fore
SplineSet
237 479 m 1
 289 436 l 1
 140 273 l 1
 289 110 l 1
 237 67 l 1
 29 273 l 1
 237 479 l 1
423 479 m 1
 475 436 l 1
 326 273 l 1
 475 110 l 1
 423 67 l 1
 215 273 l 1
 423 479 l 1
EndSplineSet
EndChar

StartChar: logicalnot
Encoding: 172 172 206
Width: 744
Flags: MW
HStem: 379 64<48 629 48 699>
VStem: 629 70<157 379 379 379>
LayerCount: 2
Fore
SplineSet
699 157 m 1
 629 157 l 1
 629 379 l 1
 48 379 l 1
 48 443 l 1
 699 443 l 1
 699 157 l 1
EndSplineSet
EndChar

StartChar: softhyphen
Encoding: 173 173 179
Width: 600
Flags: MW
HStem: 256 62<66 432 66 432>
VStem: 66 366<256 318 256 318>
LayerCount: 2
Fore
SplineSet
432 318 m 1
 432 256 l 1
 66 256 l 1
 66 318 l 1
 432 318 l 1
EndSplineSet
EndChar

StartChar: registered
Encoding: 174 174 228
Width: 817
Flags: MW
HStem: -19 64<354.5 491 354.5 509.5> 349 64<347 383 347 451> 499 64<347 451 347 347> 655 64<325 464.5>
VStem: 37 70<319.5 435 319.5 450.5> 277 70<173 349 413 499> 490 70<443.5 468.5> 709 70<265 377.5>
LayerCount: 2
Fore
SplineSet
734 527 m 0
 763 475 779 413 779 350 c 0
 779 149 611 -19 408 -19 c 0
 276 -19 156 53 92 156 c 0
 57 213 37 280 37 350 c 0
 37 551 206 719 408 719 c 0
 547 719 672 639 734 527 c 0
408 45 m 0
 574 45 709 180 709 350 c 0
 709 405 696 452 673 496 c 0
 620 593 521 655 408 655 c 0
 242 655 107 520 107 350 c 0
 107 289 123 237 152 190 c 0
 206 101 301 45 408 45 c 0
277 563 m 1
 451 563 l 2
 509 563 560 512 560 456 c 0
 560 403 514 355 461 350 c 1
 576 173 l 1
 488 173 l 1
 383 349 l 1
 347 349 l 1
 347 173 l 1
 277 173 l 1
 277 563 l 1
347 413 m 1
 451 413 l 2
 472 413 490 431 490 456 c 0
 490 481 472 499 451 499 c 2
 347 499 l 1
 347 413 l 1
EndSplineSet
EndChar

StartChar: macron
Encoding: 175 175 242
Width: 600
Flags: MW
HStem: 528 64<42 560 42 560>
VStem: 42 518<528 592 528 592>
LayerCount: 2
Fore
SplineSet
42 592 m 1
 560 592 l 1
 560 528 l 1
 42 528 l 1
 42 592 l 1
EndSplineSet
EndChar

StartChar: degree
Encoding: 176 176 226
Width: 600
Flags: MW
HStem: 486 64<280 328 280 347.5> 731 64<280 328>
VStem: 146 70<615 666.5 615 683> 392 70<615 666.5>
LayerCount: 2
Fore
SplineSet
304 486 m 0
 217 486 146 556 146 641 c 0
 146 725 217 795 304 795 c 0
 391 795 462 725 462 641 c 0
 462 556 391 486 304 486 c 0
304 550 m 0
 352 550 392 589 392 641 c 0
 392 692 352 731 304 731 c 0
 256 731 216 692 216 641 c 0
 216 589 256 550 304 550 c 0
EndSplineSet
EndChar

StartChar: plusminus
Encoding: 177 177 214
Width: 600
Flags: MW
HStem: -32 64<31 572 31 572> 334 64<31 266 31 266 336 572>
VStem: 266 70<163 334 163 334 398 569>
LayerCount: 2
Fore
SplineSet
336 334 m 1
 336 163 l 1
 266 163 l 1
 266 334 l 1
 31 334 l 1
 31 398 l 1
 266 398 l 1
 266 569 l 1
 336 569 l 1
 336 398 l 1
 572 398 l 1
 572 334 l 1
 336 334 l 1
572 -32 m 1
 31 -32 l 1
 31 32 l 1
 572 32 l 1
 572 -32 l 1
EndSplineSet
EndChar

StartChar: twosuperior
Encoding: 178 178 153
Width: 283
Flags: MW
HStem: 500 64<18 18 104 267> 843 64<123.5 155>
VStem: 18 249<500 564 500 564> 184.2 69.61
LayerCount: 2
Fore
SplineSet
18 500 m 1xe0
 18 564 l 1xe0
 18 564 129 704 173 765 c 0
 200 803 176 843 134 843 c 0
 113 843 94 829 87 807 c 1
 20 827 l 1
 36 873 80 907 134 907 c 0
 230 907 290 811 230 728 c 0
 203 690 144 615 104 564 c 1xd0
 267 564 l 1
 267 500 l 1
 18 500 l 1xe0
EndSplineSet
EndChar

StartChar: threesuperior
Encoding: 179 179 154
Width: 312
Flags: MW
HStem: 493 64<137 170.5 137 191> 687 59.5 837 64<138 162.5>
VStem: 192 70<780 805.5> 214 70<602.5 637.5>
LayerCount: 2
Fore
SplineSet
111 804 m 1xf0
 43 818 l 1
 53 857 95 901 151 901 c 0
 213 901 262 851 262 793 c 0xf0
 262 765 252 740 234 720 c 1
 264 697 284 661 284 621 c 0
 284 552 231 493 151 493 c 0
 99 493 54 522 34 556 c 1
 94 588 l 1
 107 568 123 557 151 557 c 0
 190 557 214 584 214 621 c 0
 214 654 186 676 151 684 c 0
 139 687 126 687 114 687 c 1
 114 745 l 1xe8
 126 744 139 745 151 748 c 0
 173 754 192 767 192 793 c 0
 192 818 174 837 151 837 c 0
 125 837 114 816 111 804 c 1xf0
EndSplineSet
EndChar

StartChar: acute
Encoding: 180 180 233
Width: 600
Flags: MW
HStem: 554 154
VStem: 142 219<614 634>
LayerCount: 2
Fore
SplineSet
361 634 m 1
 158 554 l 1
 142 614 l 1
 339 708 l 1
 361 634 l 1
EndSplineSet
EndChar

StartChar: paragraph
Encoding: 182 182 227
Width: 600
Flags: MW
HStem: 408 64<179 274 230 274> 712 64<214.5 521 230 274 344 451 344 344>
VStem: 45 70<558 609 558 617.5> 274 70<-164 408 408 408 472 712 -164 712> 451 70<-164 712 712 712>
LayerCount: 2
Fore
SplineSet
451 -164 m 1
 451 712 l 1
 344 712 l 1
 344 -164 l 1
 274 -164 l 1
 274 408 l 1
 230 408 l 2
 128 408 45 490 45 592 c 0
 45 643 66 689 99 722 c 0
 133 755 179 776 230 776 c 2
 521 776 l 1
 521 -164 l 1
 451 -164 l 1
274 712 m 1
 230 712 l 2
 199 712 172 700 148 677 c 0
 128 657 115 626 115 592 c 0
 115 524 168 472 230 472 c 2
 274 472 l 1
 274 712 l 1
EndSplineSet
EndChar

StartChar: periodcentered
Encoding: 183 183 164
Width: 600
Flags: MW
HStem: 240 125<169.5 204>
VStem: 124 125<285 319.5>
LayerCount: 2
Fore
SplineSet
187 240 m 0
 152 240 124 268 124 302 c 0
 124 337 152 365 187 365 c 0
 221 365 249 337 249 302 c 0
 249 268 221 240 187 240 c 0
EndSplineSet
EndChar

StartChar: cedilla
Encoding: 184 184 236
Width: 600
Flags: MW
HStem: -164 168<265 302>
VStem: 212 143<-128 -32>
LayerCount: 2
Fore
SplineSet
355 -32 m 1
 265 -164 l 1
 212 -128 l 1
 302 4 l 1
 355 -32 l 1
EndSplineSet
EndChar

StartChar: onesuperior
Encoding: 185 185 152
Width: 359
Flags: MW
HStem: 503 399<183 247 183 247 176 247>
VStem: 176 71<503 831 831 831>
LayerCount: 2
Fore
SplineSet
247 902 m 1
 247 503 l 1
 176 503 l 1
 176 831 l 1
 84 762 l 1
 84 845 l 1
 183 902 l 1
 247 902 l 1
EndSplineSet
EndChar

StartChar: ordmasculine
Encoding: 186 186 137
Width: 403
Flags: MW
HStem: 439 54<172 230 172 249> 727 55<172.5 230>
VStem: 27 64<577.5 642.5 577.5 656.5> 310 65<578 642.5>
LayerCount: 2
Fore
SplineSet
375 610 m 0
 375 518 297 439 201 439 c 0
 105 439 27 517 27 610 c 0
 27 703 106 782 201 782 c 0
 297 782 375 703 375 610 c 0
310 610 m 0
 310 675 259 727 201 727 c 0
 144 727 91 675 91 610 c 0
 91 545 143 493 201 493 c 0
 259 493 310 546 310 610 c 0
EndSplineSet
EndChar

StartChar: guillemotright
Encoding: 187 187 181
Width: 595
Flags: MW
HStem: 67 412<171 171 171 357>
VStem: 119 446<110 273 273 436>
LayerCount: 2
Fore
SplineSet
119 436 m 1
 268 273 l 1
 119 110 l 1
 171 67 l 1
 379 273 l 1
 171 479 l 1
 119 436 l 1
305 436 m 1
 454 273 l 1
 305 110 l 1
 357 67 l 1
 565 273 l 1
 357 479 l 1
 305 436 l 1
EndSplineSet
EndChar

StartChar: onequarter
Encoding: 188 188 150
Width: 745
Flags: MW
HStem: 85 59<464 533 464 533 603 651>
VStem: 176 71<503 831 831 831> 533 70<-1 85 -1 85 144 254 254 254>
LayerCount: 2
Fore
SplineSet
247 902 m 1
 247 503 l 1
 176 503 l 1
 176 831 l 1
 84 762 l 1
 84 845 l 1
 183 902 l 1
 247 902 l 1
726 841 m 1
 152 -18 l 1
 95 18 l 1
 669 878 l 1
 726 841 l 1
533 -1 m 1
 533 85 l 1
 386 85 l 1
 386 141 l 1
 552 398 l 1
 603 398 l 1
 603 144 l 1
 651 144 l 1
 651 85 l 1
 603 85 l 1
 603 -1 l 1
 533 -1 l 1
533 144 m 1
 533 254 l 1
 464 144 l 1
 533 144 l 1
EndSplineSet
EndChar

StartChar: onehalf
Encoding: 189 189 149
Width: 755
Flags: MW
HStem: 0 64<475 475 562 724> 343 64<581 612>
VStem: 176 71<503 831 831 831> 475 249<0 64 0 64> 642.04 69.61
LayerCount: 2
Fore
SplineSet
247 503 m 1xe8
 176 503 l 1
 176 831 l 1
 84 762 l 1
 84 845 l 1
 183 902 l 1
 247 902 l 1
 247 503 l 1xe8
148 -18 m 1
 91 18 l 1
 665 878 l 1
 722 841 l 1
 148 -18 l 1
475 0 m 1xf0
 475 64 l 1xf0
 475 64 587 204 631 265 c 0
 658 302 633 343 591 343 c 0
 571 343 551 328 544 307 c 1
 478 327 l 1
 493 373 537 407 591 407 c 0
 687 407 748 311 688 227 c 1
 660 190 602 114 562 64 c 1xe8
 724 64 l 1
 724 0 l 1
 475 0 l 1xf0
EndSplineSet
EndChar

StartChar: threequarters
Encoding: 190 190 151
Width: 745
Flags: MW
HStem: 85 59<464 533 464 533 603 651> 493 64<137 170.5 137 191> 687 59.5 837 64<138 162.5>
VStem: 192 70<780 805.5> 214 70<602.5 637.5> 533 70<-1 85 -1 85 144 254 254 254>
LayerCount: 2
Fore
SplineSet
111 804 m 1xfa
 43 818 l 1
 53 857 95 901 151 901 c 0
 213 901 262 851 262 793 c 0xfa
 262 765 252 740 234 720 c 1
 264 697 284 661 284 621 c 0
 284 552 231 493 151 493 c 0
 99 493 54 522 34 556 c 1
 94 588 l 1
 107 568 123 557 151 557 c 0
 190 557 214 584 214 621 c 0
 214 654 186 676 151 684 c 0
 139 687 126 687 114 687 c 1
 114 745 l 1xf6
 126 744 139 745 151 748 c 0
 173 754 192 767 192 793 c 0
 192 818 174 837 151 837 c 0
 125 837 114 816 111 804 c 1xfa
703 841 m 1
 129 -18 l 1
 72 18 l 1
 646 878 l 1
 703 841 l 1
533 -1 m 1
 533 85 l 1
 386 85 l 1
 386 141 l 1
 552 398 l 1
 603 398 l 1
 603 144 l 1
 651 144 l 1
 651 85 l 1
 603 85 l 1
 603 -1 l 1
 533 -1 l 1
533 144 m 1
 533 254 l 1
 464 144 l 1
 533 144 l 1
EndSplineSet
EndChar

StartChar: questiondown
Encoding: 191 191 166
Width: 600
Flags: MW
HStem: 485 116<186 246 211.5 246 211.5 256>
VStem: 102 330.46
LayerCount: 2
Fore
SplineSet
229 726 m 0
 194 726 166 698 166 663 c 0
 166 629 194 601 229 601 c 0
 263 601 291 629 291 663 c 0
 291 698 263 726 229 726 c 0
186 485 m 1
 174 334 l 1
 262 306 355 272 362 187 c 0
 367 124 321 79 253 82 c 1
 186 86 155 145 155 145 c 1
 102 108 l 1
 102 108 136 24 250 18 c 0
 359 12 440 91 432 193 c 0
 423 298 336 348 256 378 c 1
 256 485 l 1
 186 485 l 1
EndSplineSet
EndChar

StartChar: Agrave
Encoding: 192 192 98
Width: 653
Flags: MW
HStem: 223 64<198 454 198 479 173 454>
VStem: 11 630<0 0>
LayerCount: 2
Fore
SplineSet
441 814 m 1
 426 754 l 1
 223 834 l 1
 245 908 l 1
 441 814 l 1
11 0 m 1
 285 700 l 1
 366 700 l 1
 641 0 l 1
 566 0 l 1
 479 223 l 1
 173 223 l 1
 85 0 l 1
 11 0 l 1
454 287 m 1
 326 614 l 1
 198 287 l 1
 454 287 l 1
EndSplineSet
EndChar

StartChar: Acircumflex
Encoding: 194 194 103
Width: 653
Flags: MW
HStem: 223 64<198 454 198 479 173 454>
VStem: 11 630<0 0>
LayerCount: 2
Fore
SplineSet
129 814 m 1
 326 908 l 1
 523 814 l 1
 507 754 l 1
 326 825 l 1
 145 754 l 1
 129 814 l 1
11 0 m 1
 285 700 l 1
 366 700 l 1
 641 0 l 1
 566 0 l 1
 479 223 l 1
 173 223 l 1
 85 0 l 1
 11 0 l 1
454 287 m 1
 326 614 l 1
 198 287 l 1
 454 287 l 1
EndSplineSet
EndChar

StartChar: Atilde
Encoding: 195 195 99
Width: 653
Flags: MW
HStem: 223 64<198 454 198 479 173 454> 767 63<392.5 426 392.5 441> 827 58
VStem: 431.87 62.23
LayerCount: 2
Fore
SplineSet
428 873 m 1xd0
 492 873 l 1
 504 793 463 767 419 767 c 0xd0
 358 767 305 831 256 827 c 0
 232 825 222 803 213 775 c 1
 160 798 l 1xb0
 174 845 209 881 253 885 c 0
 316 890 371 830 414 830 c 0
 438 830 433 853 428 873 c 1xd0
11 0 m 1
 285 700 l 1
 366 700 l 1
 641 0 l 1
 566 0 l 1
 479 223 l 1
 173 223 l 1
 85 0 l 1
 11 0 l 1
454 287 m 1
 326 614 l 1
 198 287 l 1
 454 287 l 1
EndSplineSet
EndChar

StartChar: Adieresis
Encoding: 196 196 66
Width: 653
Flags: MW
HStem: 223 64<198 454 198 479 173 454>
VStem: 11 630<0 0>
LayerCount: 2
Fore
SplineSet
141 809 m 0
 141 784 162 762 187 762 c 0
 212 762 234 784 234 809 c 0
 234 834 212 855 187 855 c 0
 162 855 141 834 141 809 c 0
420 809 m 0
 420 784 442 762 467 762 c 0
 492 762 513 784 513 809 c 0
 513 834 492 855 467 855 c 0
 442 855 420 834 420 809 c 0
11 0 m 1
 285 700 l 1
 366 700 l 1
 641 0 l 1
 566 0 l 1
 479 223 l 1
 173 223 l 1
 85 0 l 1
 11 0 l 1
454 287 m 1
 326 614 l 1
 198 287 l 1
 454 287 l 1
EndSplineSet
EndChar

StartChar: Aring
Encoding: 197 197 67
Width: 653
Flags: MW
HStem: 223 64<198 454 198 479 173 454> 908 54<301 351>
VStem: 182 54<792.5 842 792.5 857.5> 416 54<792.5 842>
LayerCount: 2
Fore
SplineSet
479 223 m 1
 173 223 l 1
 85 0 l 1
 11 0 l 1
 278 681 l 1
 222 701 182 754 182 817 c 0
 182 898 246 962 326 962 c 0
 406 962 470 898 470 817 c 0
 470 754 430 701 374 681 c 1
 641 0 l 1
 566 0 l 1
 479 223 l 1
236 817 m 0
 236 768 276 727 326 727 c 0
 376 727 416 768 416 817 c 0
 416 867 376 908 326 908 c 0
 276 908 236 867 236 817 c 0
198 287 m 1
 454 287 l 1
 326 614 l 1
 198 287 l 1
EndSplineSet
EndChar

StartChar: AE
Encoding: 198 198 118
Width: 1102
Flags: MW
HStem: 0 64<644 1027 644 1027> 223 64<341 574 341 574 291 574> 322 64<644 952 644 952> 636 64<644 1027 644 644>
VStem: 574 70<64 223 223 223 287 322 386 586 586 586>
LayerCount: 2
Fore
SplineSet
574 223 m 1
 291 223 l 1
 118 0 l 1
 28 0 l 1
 574 700 l 1
 1027 700 l 1
 1027 636 l 1
 644 636 l 1
 644 386 l 1
 952 386 l 1
 952 322 l 1
 644 322 l 1
 644 64 l 1
 1027 64 l 1
 1027 0 l 1
 574 0 l 1
 574 223 l 1
574 287 m 1
 574 586 l 1
 341 287 l 1
 574 287 l 1
EndSplineSet
EndChar

StartChar: Ccedilla
Encoding: 199 199 68
Width: 656
Flags: MW
HStem: -2 64<298 411 298 423> 637 64<291.5 408>
VStem: 36 70<269.5 423.5 269.5 438.5>
LayerCount: 2
Fore
SplineSet
577 175 m 1
 634 138 l 1
 573 53 477 -2 369 -2 c 0
 185 -2 36 156 36 350 c 0
 36 527 167 701 369 701 c 0
 470 701 560 654 621 578 c 1
 567 538 l 1
 515 602 447 637 369 637 c 0
 214 637 106 497 106 350 c 0
 106 189 227 62 369 62 c 0
 453 62 525 103 577 175 c 1
403 -61 m 1
 313 -193 l 1
 260 -157 l 1
 350 -25 l 1
 403 -61 l 1
EndSplineSet
EndChar

StartChar: Egrave
Encoding: 200 200 107
Width: 570
Flags: MW
HStem: 0 64<156 539 156 539> 322 64<156 464 156 464> 636 64<156 538 156 156>
VStem: 86 70<64 322 386 636>
LayerCount: 2
Fore
SplineSet
234 908 m 1
 431 814 l 1
 415 754 l 1
 212 834 l 1
 234 908 l 1
86 0 m 1
 86 700 l 1
 538 700 l 1
 538 636 l 1
 156 636 l 1
 156 386 l 1
 464 386 l 1
 464 322 l 1
 156 322 l 1
 156 64 l 1
 539 64 l 1
 539 0 l 1
 86 0 l 1
EndSplineSet
EndChar

StartChar: Eacute
Encoding: 201 201 69
Width: 570
Flags: MW
HStem: 0 64<156 539 156 539> 322 64<156 464 156 464> 636 64<156 538 156 156>
VStem: 86 70<64 322 386 636>
LayerCount: 2
Fore
SplineSet
434 834 m 1
 231 754 l 1
 215 814 l 1
 412 908 l 1
 434 834 l 1
86 700 m 1
 538 700 l 1
 538 636 l 1
 156 636 l 1
 156 386 l 1
 464 386 l 1
 464 322 l 1
 156 322 l 1
 156 64 l 1
 539 64 l 1
 539 0 l 1
 86 0 l 1
 86 700 l 1
EndSplineSet
EndChar

StartChar: Ecircumflex
Encoding: 202 202 104
Width: 570
Flags: MW
HStem: 0 64<156 539 156 539> 322 64<156 464 156 464> 636 64<156 538 156 156>
VStem: 86 70<64 322 386 636>
LayerCount: 2
Fore
SplineSet
118 814 m 1
 315 908 l 1
 512 814 l 1
 496 754 l 1
 315 825 l 1
 134 754 l 1
 118 814 l 1
86 700 m 1
 538 700 l 1
 538 636 l 1
 156 636 l 1
 156 386 l 1
 464 386 l 1
 464 322 l 1
 156 322 l 1
 156 64 l 1
 539 64 l 1
 539 0 l 1
 86 0 l 1
 86 700 l 1
EndSplineSet
EndChar

StartChar: Edieresis
Encoding: 203 203 106
Width: 570
Flags: MW
HStem: 0 64<156 539 156 539> 322 64<156 464 156 464> 636 64<156 538 156 156> 762 93<164.5 189.5 443.5 468.5>
VStem: 86 70<64 322 386 636> 130 93<796.5 821.5> 409 93<796.5 821.5>
LayerCount: 2
Fore
SplineSet
177 762 m 0xf6
 152 762 130 784 130 809 c 0
 130 834 152 855 177 855 c 0
 202 855 223 834 223 809 c 0
 223 784 202 762 177 762 c 0xf6
456 762 m 0
 431 762 409 784 409 809 c 0
 409 834 431 855 456 855 c 0
 481 855 502 834 502 809 c 0
 502 784 481 762 456 762 c 0
86 0 m 1xe8
 86 700 l 1
 538 700 l 1
 538 636 l 1
 156 636 l 1
 156 386 l 1
 464 386 l 1
 464 322 l 1
 156 322 l 1
 156 64 l 1
 539 64 l 1
 539 0 l 1
 86 0 l 1xe8
EndSplineSet
EndChar

StartChar: Igrave
Encoding: 204 204 111
Width: 242
Flags: MW
HStem: 0 908<40 156 40 86>
VStem: 86 70<0 700 0 700>
LayerCount: 2
Fore
SplineSet
236 814 m 1
 221 754 l 1
 18 834 l 1
 40 908 l 1
 236 814 l 1
86 700 m 1
 156 700 l 1
 156 0 l 1
 86 0 l 1
 86 700 l 1
EndSplineSet
EndChar

StartChar: Iacute
Encoding: 205 205 108
Width: 242
Flags: MW
HStem: 0 908<86 218 86 218>
VStem: 86 70<0 700 0 700>
LayerCount: 2
Fore
SplineSet
240 834 m 1
 37 754 l 1
 21 814 l 1
 218 908 l 1
 240 834 l 1
86 700 m 1
 156 700 l 1
 156 0 l 1
 86 0 l 1
 86 700 l 1
EndSplineSet
EndChar

StartChar: Icircumflex
Encoding: 206 206 109
Width: 242
Flags: MW
HStem: 0 908<121 121 121 156 86 121>
VStem: 86 70<0 700 0 700>
LayerCount: 2
Fore
SplineSet
-76 814 m 1
 121 908 l 1
 318 814 l 1
 302 754 l 1
 121 825 l 1
 -60 754 l 1
 -76 814 l 1
86 700 m 1
 156 700 l 1
 156 0 l 1
 86 0 l 1
 86 700 l 1
EndSplineSet
EndChar

StartChar: Idieresis
Encoding: 207 207 110
Width: 242
Flags: MW
HStem: 0 855<-30.5 156 -30.5 86>
VStem: 86 70<0 700 0 700>
LayerCount: 2
Fore
SplineSet
-64 809 m 0
 -64 784 -43 762 -18 762 c 0
 7 762 29 784 29 809 c 0
 29 834 7 855 -18 855 c 0
 -43 855 -64 834 -64 809 c 0
215 809 m 0
 215 784 237 762 262 762 c 0
 287 762 308 784 308 809 c 0
 308 834 287 855 262 855 c 0
 237 855 215 834 215 809 c 0
86 700 m 1
 156 700 l 1
 156 0 l 1
 86 0 l 1
 86 700 l 1
EndSplineSet
EndChar

StartChar: Eth
Encoding: 208 208 119
Width: 721
Flags: MW
HStem: 0 64<246 318 246 318> 295 62<20 176 20 176 246 386> 636 64<246 313 246 246>
VStem: 176 70<64 64 64 295 357 636> 599 70<263.5 438>
LayerCount: 2
Fore
SplineSet
176 700 m 1
 313 700 l 2
 562 700 669 553 669 350 c 0
 669 149 555 0 318 0 c 2
 176 0 l 1
 176 295 l 1
 20 295 l 1
 20 357 l 1
 176 357 l 1
 176 700 l 1
246 64 m 1
 318 64 l 2
 511 64 599 177 599 350 c 0
 599 526 517 636 313 636 c 2
 246 636 l 1
 246 357 l 1
 386 357 l 1
 386 295 l 1
 246 295 l 1
 246 64 l 1
EndSplineSet
EndChar

StartChar: Ntilde
Encoding: 209 209 70
Width: 725
Flags: MW
HStem: 767 63<428.5 462 428.5 477> 827 58
VStem: 86 70<0 591 0 700> 467.87 62.23 568 71<111 700 0 700>
LayerCount: 2
Fore
SplineSet
464 873 m 1xb8
 528 873 l 1
 540 793 499 767 455 767 c 0xb8
 394 767 341 831 292 827 c 0
 268 825 258 803 249 775 c 1
 196 798 l 1x78
 210 845 245 881 289 885 c 0
 352 890 407 830 450 830 c 0
 474 830 469 853 464 873 c 1xb8
156 591 m 1
 156 0 l 1
 86 0 l 1
 86 700 l 1
 164 700 l 1
 568 111 l 1
 568 700 l 1
 639 700 l 1
 639 0 l 1
 562 0 l 1
 156 591 l 1
EndSplineSet
EndChar

StartChar: Ocircumflex
Encoding: 212 212 113
Width: 774
Flags: MW
HStem: 0 64<310.5 455 310.5 472> 638 64<309 464>
VStem: 36 70<271.5 430 271.5 446.5> 669 70<261 431>
LayerCount: 2
Fore
SplineSet
190 814 m 1
 387 908 l 1
 584 814 l 1
 568 754 l 1
 387 825 l 1
 206 754 l 1
 190 814 l 1
387 702 m 0
 581 702 739 545 739 351 c 0
 739 130 557 0 387 0 c 0
 193 0 36 157 36 351 c 0
 36 542 190 702 387 702 c 0
387 638 m 0
 231 638 106 509 106 351 c 0
 106 192 234 64 387 64 c 0
 523 64 669 171 669 351 c 0
 669 511 541 638 387 638 c 0
EndSplineSet
EndChar

StartChar: Otilde
Encoding: 213 213 100
Width: 775
Flags: MW
HStem: 0 64<310.5 455 310.5 472> 638 64<309 464> 767 63<453.5 487 453.5 502> 827 58
VStem: 36 70<271.5 430 271.5 446.5> 492.87 62.23 669 70<261 431>
LayerCount: 2
Fore
SplineSet
489 873 m 1xee
 553 873 l 1
 565 793 524 767 480 767 c 0xee
 419 767 366 831 317 827 c 0
 293 825 283 803 274 775 c 1
 221 798 l 1xde
 235 845 270 881 314 885 c 0
 377 890 432 830 475 830 c 0
 499 830 494 853 489 873 c 1xee
387 702 m 0
 581 702 739 545 739 351 c 0
 739 130 557 0 387 0 c 0
 193 0 36 157 36 351 c 0
 36 542 190 702 387 702 c 0
387 638 m 0
 231 638 106 509 106 351 c 0
 106 192 234 64 387 64 c 0
 523 64 669 171 669 351 c 0
 669 511 541 638 387 638 c 0
EndSplineSet
EndChar

StartChar: multiply
Encoding: 215 215 208
Width: 609
Flags: MW
HStem: -23 575<65 545>
VStem: 15 579<23 507>
LayerCount: 2
Fore
SplineSet
65 552 m 1
 594 23 l 1
 545 -23 l 1
 15 507 l 1
 65 552 l 1
EndSplineSet
EndChar

StartChar: Oslash
Encoding: 216 216 120
Width: 774
Flags: MW
HStem: 0 64<378.5 455 378.5 472> 638 64<309 396>
VStem: 36 70<292 430 292 446.5> 669 70<261 410>
LayerCount: 2
Fore
SplineSet
546 766 m 1
 519 677 l 1
 648 625 739 499 739 351 c 0
 739 130 557 0 387 0 c 0
 363 0 340 2 317 7 c 1
 292 -77 l 1
 230 -59 l 1
 256 25 l 1
 127 77 36 204 36 351 c 0
 36 542 190 702 387 702 c 0
 411 702 435 700 458 695 c 1
 485 785 l 1
 546 766 l 1
275 88 m 1
 439 634 l 1
 422 637 405 638 387 638 c 0
 231 638 106 509 106 351 c 0
 106 233 176 132 275 88 c 1
500 614 m 1
 336 69 l 1
 352 66 370 64 387 64 c 0
 523 64 669 171 669 351 c 0
 669 469 599 570 500 614 c 1
EndSplineSet
EndChar

StartChar: Ucircumflex
Encoding: 219 219 116
Width: 661
Flags: MW
HStem: -9 64<324 342 324 343 323 342>
VStem: 69 70<270 700> 527 70<270 700 270 700 270 700>
LayerCount: 2
Fore
SplineSet
134 814 m 1
 331 908 l 1
 528 814 l 1
 512 754 l 1
 331 825 l 1
 150 754 l 1
 134 814 l 1
139 700 m 1
 139 265 l 2
 139 236 147 62 324 55 c 1
 342 55 l 1
 510 61 526 219 527 260 c 1
 527 700 l 1
 597 700 l 1
 597 270 l 1
 597 270 607 0 343 -9 c 1
 323 -9 l 1
 59 0 69 270 69 270 c 1
 69 700 l 1
 139 700 l 1
EndSplineSet
EndChar

StartChar: Udieresis
Encoding: 220 220 72
Width: 661
Flags: MW
HStem: -9 64<324 342 324 343 323 342>
VStem: 69 70<270 700> 527 70<270 700 270 700 270 700>
LayerCount: 2
Fore
SplineSet
146 809 m 0
 146 784 167 762 192 762 c 0
 217 762 239 784 239 809 c 0
 239 834 217 855 192 855 c 0
 167 855 146 834 146 809 c 0
425 809 m 0
 425 784 447 762 472 762 c 0
 497 762 518 784 518 809 c 0
 518 834 497 855 472 855 c 0
 447 855 425 834 425 809 c 0
139 700 m 1
 139 265 l 2
 139 236 147 62 324 55 c 1
 342 55 l 1
 510 61 526 219 527 260 c 1
 527 700 l 1
 597 700 l 1
 597 270 l 1
 597 270 607 0 343 -9 c 1
 323 -9 l 1
 59 0 69 270 69 270 c 1
 69 700 l 1
 139 700 l 1
EndSplineSet
EndChar

StartChar: Yacute
Encoding: 221 221 5
Width: 638
Flags: MW
HStem: 0 908<284 416 284 416>
VStem: 284 70<0 339 0 339>
LayerCount: 2
Fore
SplineSet
438 834 m 1
 235 754 l 1
 219 814 l 1
 416 908 l 1
 438 834 l 1
634 700 m 1
 354 339 l 1
 354 0 l 1
 284 0 l 1
 284 339 l 1
 4 700 l 1
 90 700 l 1
 319 405 l 1
 548 700 l 1
 634 700 l 1
EndSplineSet
EndChar

StartChar: Thorn
Encoding: 222 222 122
Width: 600
Flags: MW
HStem: 164 64<143 330 143 330> 533 64<143 330 143 330>
VStem: 73 70<0 164 228 533 597 694> 479 70<338 402>
LayerCount: 2
Fore
SplineSet
143 597 m 1
 330 597 l 2
 389 597 448 570 485 534 c 0
 524 495 549 438 549 381 c 0
 549 262 451 164 330 164 c 2
 143 164 l 1
 143 0 l 1
 73 0 l 1
 73 694 l 1
 143 694 l 1
 143 597 l 1
143 228 m 1
 330 228 l 2
 412 228 479 295 479 381 c 0
 479 423 462 462 435 488 c 1
 407 517 371 533 330 533 c 2
 143 533 l 1
 143 228 l 1
EndSplineSet
EndChar

StartChar: germandbls
Encoding: 223 223 129
Width: 600
Flags: MW
HStem: 0 70<298.5 349.5 298.5 369> 341 70<273 302 273 302> 657 70<197 324.5>
VStem: 55 70<0 510 0 536> 404 70<513 556> 448 70<168.5 243.5>
LayerCount: 2
Fore
SplineSet
55 0 m 1xf4
 55 510 l 2
 55 562 67 727 262 727 c 0
 447 727 474 589 474 532 c 0xf8
 474 494 459 428 414 384 c 1
 476 349 518 282 518 206 c 0
 518 92 426 0 312 0 c 0
 273 0 236 11 205 30 c 1
 241 90 l 1
 263 77 285 70 312 70 c 0
 387 70 448 131 448 206 c 0xf4
 448 281 403 341 302 341 c 2
 273 341 l 1
 273 411 l 1
 302 411 l 1
 308 412 l 1
 383 415 404 485 404 532 c 0xf8
 404 580 387 657 262 657 c 0
 132 657 125 559 125 510 c 2
 125 0 l 1
 55 0 l 1xf4
EndSplineSet
EndChar

StartChar: adieresis
Encoding: 228 228 76
Width: 516
Flags: MW
HStem: -6 64<176.5 241> 246 57<232 286.5 212 300.5> 445 64<227.5 288>
VStem: 47 70<116.5 178.5 116.5 202> 371 70<0 68 68 68 180 237 292 329 0 366>
LayerCount: 2
Fore
SplineSet
78 609 m 0
 78 584 99 562 124 562 c 0
 149 562 171 584 171 609 c 0
 171 634 149 655 124 655 c 0
 99 655 78 634 78 609 c 0
357 609 m 0
 357 584 379 562 404 562 c 0
 429 562 450 584 450 609 c 0
 450 634 429 655 404 655 c 0
 379 655 357 634 357 609 c 0
133 394 m 1
 84 436 l 1
 109 464 165 509 254 509 c 0
 357 509 441 439 441 329 c 2
 441 0 l 1
 371 0 l 1
 371 68 l 1
 330 23 274 -6 208 -6 c 0
 97 -6 47 71 47 137 c 0
 47 267 154 303 270 303 c 0
 303 303 340 299 371 292 c 1
 371 329 l 2
 371 403 322 445 254 445 c 0
 201 445 159 417 133 394 c 1
284 246 m 0
 180 246 117 220 117 137 c 0
 117 96 145 58 208 58 c 0
 314 58 371 123 371 237 c 1
 348 242 317 246 284 246 c 0
EndSplineSet
EndChar

StartChar: aring
Encoding: 229 229 78
Width: 516
Flags: MW
HStem: -6 64<176.5 241> 246 57<232 286.5 212 300.5> 445 82<238 288 238 288> 708 54<238 288>
VStem: 47 70<116.5 178.5 116.5 202> 119 54<592.5 642 592.5 657.5> 353 54<592.5 642> 371 70<0 68 68 68 180 237 292 329 0 366>
LayerCount: 2
Fore
SplineSet
133 394 m 1xf9
 84 436 l 1
 101 455 134 483 181 498 c 1
 143 524 119 568 119 617 c 0
 119 698 183 762 263 762 c 0
 343 762 407 698 407 617 c 0xf6
 407 564 379 517 336 492 c 1
 398 466 441 407 441 329 c 2
 441 0 l 1
 371 0 l 1
 371 68 l 1
 330 23 274 -6 208 -6 c 0
 97 -6 47 71 47 137 c 0
 47 267 154 303 270 303 c 0
 303 303 340 299 371 292 c 1
 371 329 l 2
 371 403 322 445 254 445 c 0
 201 445 159 417 133 394 c 1xf9
263 708 m 0
 213 708 173 667 173 617 c 0
 173 568 213 527 263 527 c 0
 313 527 353 568 353 617 c 0
 353 667 313 708 263 708 c 0
208 58 m 0xf9
 314 58 371 123 371 237 c 1
 348 242 317 246 284 246 c 0
 180 246 117 220 117 137 c 0
 117 96 145 58 208 58 c 0xf9
EndSplineSet
EndChar

StartChar: ae
Encoding: 230 230 123
Width: 890
Flags: MW
HStem: -10 64<576 663.5 568.5 678> -6 64<176.5 241> 246 57<232 286.5 212 300.5> 247 61<450 776 450 839 445 776> 445 64<227.5 288> 454 64<578.5 664 578.5 673>
VStem: 47 70<116.5 178.5 116.5 202> 371 74<180 247 247 329> 776 67.88
LayerCount: 2
Fore
SplineSet
839 247 m 1x9780
 445 247 l 1
 447 143 509 54 628 54 c 0
 699 54 754 92 785 154 c 1
 842 107 l 1
 802 42 728 -10 628 -10 c 0x9780
 524 -10 452 40 412 109 c 1
 404 93 394 78 380 62 c 0
 337 14 274 -6 208 -6 c 0
 97 -6 47 71 47 137 c 0
 47 267 154 303 270 303 c 0
 303 303 340 299 371 292 c 1
 371 329 l 2
 371 403 322 445 254 445 c 0
 201 445 159 417 133 394 c 1
 84 436 l 1
 109 464 165 509 254 509 c 0x6b80
 327 509 391 473 421 413 c 1
 463 475 531 518 626 518 c 0
 702 518 762 491 801 444 c 0
 836 402 853 348 839 247 c 1x9780
450 308 m 1
 776 308 l 1
 786 395 720 454 626 454 c 0
 528 454 468 390 450 308 c 1
208 58 m 0x6780
 314 58 371 123 371 237 c 1
 348 242 317 246 284 246 c 0
 180 246 117 220 117 137 c 0
 117 96 145 58 208 58 c 0x6780
EndSplineSet
EndChar

StartChar: igrave
Encoding: 236 236 85
Width: 176
Flags: MW
HStem: 0 708<6 120 6 56>
VStem: 56 64<0 502 0 502>
LayerCount: 2
Fore
SplineSet
203 614 m 1
 187 554 l 1
 -16 634 l 1
 6 708 l 1
 203 614 l 1
56 502 m 1
 120 502 l 1
 120 0 l 1
 56 0 l 1
 56 502 l 1
EndSplineSet
EndChar

StartChar: iacute
Encoding: 237 237 84
Width: 176
Flags: MW
HStem: 0 708<56 185 56 185>
VStem: 56 64<0 502 0 502>
LayerCount: 2
Fore
SplineSet
207 634 m 1
 4 554 l 1
 -12 614 l 1
 185 708 l 1
 207 634 l 1
56 502 m 1
 120 502 l 1
 120 0 l 1
 56 0 l 1
 56 502 l 1
EndSplineSet
EndChar

StartChar: icircumflex
Encoding: 238 238 86
Width: 176
Flags: MW
HStem: 0 708<88 88 88 120 56 88>
VStem: 56 64<0 502 0 502>
LayerCount: 2
Fore
SplineSet
-109 614 m 1
 88 708 l 1
 284 614 l 1
 269 554 l 1
 88 625 l 1
 -93 554 l 1
 -109 614 l 1
56 502 m 1
 120 502 l 1
 120 0 l 1
 56 0 l 1
 56 502 l 1
EndSplineSet
EndChar

StartChar: idieresis
Encoding: 239 239 87
Width: 176
Flags: MW
HStem: 0 650<-1.5 120 -1.5 56>
VStem: 56 64<0 502 0 502>
LayerCount: 2
Fore
SplineSet
-36 604 m 0
 -36 579 -14 557 11 557 c 0
 36 557 57 579 57 604 c 0
 57 629 36 650 11 650 c 0
 -14 650 -36 629 -36 604 c 0
119 602 m 0
 119 577 140 556 165 556 c 0
 190 556 212 577 212 602 c 0
 212 627 190 649 165 649 c 0
 140 649 119 627 119 602 c 0
56 502 m 1
 120 502 l 1
 120 0 l 1
 56 0 l 1
 56 502 l 1
EndSplineSet
EndChar

StartChar: eth
Encoding: 240 240 124
Width: 600
Flags: MW
HStem: -9 64<260.5 310.5 260.5 322> 403 64<278 311.5 266.5 327.5> 674 64<90 113.5>
VStem: 93 70<179 255.5 179 262.5> 425 70<203 279>
LayerCount: 2
Fore
SplineSet
395 744 m 1
 320 658 l 1
 432 567 495 407 495 229 c 0
 495 165 473 106 438 63 c 0
 402 19 350 -9 294 -9 c 0
 183 -9 93 98 93 229 c 0
 93 296 116 357 154 401 c 0
 190 442 239 467 294 467 c 0
 329 467 361 457 390 439 c 1
 364 508 326 566 276 607 c 1
 232 556 l 1
 179 598 l 1
 219 644 l 1
 180 664 137 674 90 674 c 1
 90 738 l 1
 155 738 213 723 264 696 c 1
 342 786 l 1
 395 744 l 1
384 104 m 0
 409 135 425 177 425 229 c 0
 425 329 361 403 294 403 c 0
 262 403 234 389 207 358 c 0
 181 329 163 282 163 229 c 0
 163 129 227 55 294 55 c 0
 327 55 357 70 384 104 c 0
EndSplineSet
EndChar

StartChar: ntilde
Encoding: 241 241 88
Width: 561
Flags: MW
HStem: 450 63<259 330.5> 567 63<346.5 380 346.5 395> 627 58
VStem: 76 70<0 325 444 507> 385.87 62.23 432 70<0 281 0 336>
LayerCount: 2
Fore
SplineSet
382 673 m 1xd8
 446 673 l 1
 458 593 417 567 373 567 c 0xd8
 312 567 259 631 210 627 c 0
 186 625 176 603 167 575 c 1
 114 598 l 1xb4
 128 645 163 681 207 685 c 0
 270 690 325 630 368 630 c 0
 392 630 387 653 382 673 c 1xd8
146 507 m 1
 146 444 l 1
 182 487 231 513 287 513 c 0
 413 513 502 424 502 281 c 2
 502 0 l 1
 432 0 l 1
 432 281 l 2xd4
 432 391 374 450 287 450 c 0
 207 450 156 383 146 325 c 1
 146 0 l 1
 76 0 l 1
 76 507 l 1
 146 507 l 1
EndSplineSet
EndChar

StartChar: otilde
Encoding: 245 245 93
Width: 591
Flags: MW
HStem: 0 64<244 346 244 366.5> 454 64<244.5 346> 565 64<363.5 396.5 363.5 411.5> 625 58
VStem: 37 70<204.5 313.5 204.5 330.5> 402.37 62.69 483 70<205 313.5>
LayerCount: 2
Fore
SplineSet
398 672 m 1xee
 463 672 l 1
 475 591 433 565 390 565 c 0xee
 329 565 276 630 227 625 c 0
 203 623 192 601 184 574 c 1
 131 597 l 1xda
 145 643 179 679 223 683 c 0
 287 689 342 629 385 629 c 0
 408 629 404 652 398 672 c 1xee
553 259 m 0xea
 553 117 438 0 295 0 c 0
 153 0 37 116 37 259 c 0
 37 402 154 518 295 518 c 0
 437 518 553 402 553 259 c 0xea
483 259 m 0
 483 368 397 454 295 454 c 0
 194 454 107 368 107 259 c 0
 107 150 193 64 295 64 c 0
 397 64 483 151 483 259 c 0
EndSplineSet
EndChar

StartChar: divide
Encoding: 247 247 198
Width: 600
Flags: MW
HStem: 0 125<282.5 317.5> 275 64<36 575 36 575> 458 125<282.5 317.5>
VStem: 237 126<45.5 80 503 537.5>
LayerCount: 2
Fore
SplineSet
300 458 m 0
 265 458 237 486 237 520 c 0
 237 555 265 583 300 583 c 0
 335 583 363 555 363 520 c 0
 363 486 335 458 300 458 c 0
575 275 m 1
 36 275 l 1
 36 339 l 1
 575 339 l 1
 575 275 l 1
300 0 m 0
 265 0 237 28 237 63 c 0
 237 97 265 125 300 125 c 0
 335 125 363 97 363 63 c 0
 363 28 335 0 300 0 c 0
EndSplineSet
EndChar

StartChar: oslash
Encoding: 248 248 126
Width: 591
Flags: MW
HStem: 0 64<290.5 346 290.5 366.5> 454 64<244.5 301>
VStem: 37 70<220.5 313.5 220.5 330.5> 483 70<205 295>
LayerCount: 2
Fore
SplineSet
454 624 m 1
 410 491 l 1
 495 448 553 361 553 259 c 0
 553 117 438 0 295 0 c 0
 279 0 264 1 249 4 c 1
 207 -125 l 1
 147 -109 l 1
 191 22 l 1
 100 62 37 153 37 259 c 0
 37 402 154 518 295 518 c 0
 315 518 334 516 352 512 c 1
 394 640 l 1
 454 624 l 1
211 85 m 1
 332 450 l 1
 320 453 307 454 295 454 c 0
 194 454 107 368 107 259 c 0
 107 182 150 117 211 85 c 1
389 427 m 1
 270 66 l 1
 278 65 286 64 295 64 c 0
 397 64 483 151 483 259 c 0
 483 331 445 394 389 427 c 1
EndSplineSet
EndChar

StartChar: ugrave
Encoding: 249 249 95
Width: 568
Flags: MW
HStem: -6 64<237.5 309>
VStem: 66 70<224 507> 422 70<0 63 63 63 182 507 0 507>
LayerCount: 2
Fore
SplineSet
203 708 m 1
 399 614 l 1
 384 554 l 1
 181 634 l 1
 203 708 l 1
422 0 m 1
 422 63 l 1
 386 20 337 -6 281 -6 c 0
 155 -6 66 82 66 224 c 2
 66 507 l 1
 136 507 l 1
 136 224 l 2
 136 114 194 58 281 58 c 0
 361 58 412 124 422 182 c 1
 422 507 l 1
 492 507 l 1
 492 0 l 1
 422 0 l 1
EndSplineSet
EndChar

StartChar: uacute
Encoding: 250 250 94
Width: 568
Flags: MW
HStem: -6 64<237.5 309>
VStem: 66 70<224 507> 422 70<0 63 63 63 182 507 0 507>
LayerCount: 2
Fore
SplineSet
381 708 m 1
 403 634 l 1
 200 554 l 1
 184 614 l 1
 381 708 l 1
422 0 m 1
 422 63 l 1
 386 20 337 -6 281 -6 c 0
 155 -6 66 82 66 224 c 2
 66 507 l 1
 136 507 l 1
 136 224 l 2
 136 114 194 58 281 58 c 0
 361 58 412 124 422 182 c 1
 422 507 l 1
 492 507 l 1
 492 0 l 1
 422 0 l 1
EndSplineSet
EndChar

StartChar: ucircumflex
Encoding: 251 251 96
Width: 568
Flags: MW
HStem: -6 64<237.5 309>
VStem: 66 70<224 507> 422 70<0 63 63 63 182 507 0 507>
LayerCount: 2
Fore
SplineSet
284 708 m 1
 481 614 l 1
 465 554 l 1
 284 625 l 1
 103 554 l 1
 87 614 l 1
 284 708 l 1
422 0 m 1
 422 63 l 1
 386 20 337 -6 281 -6 c 0
 155 -6 66 82 66 224 c 2
 66 507 l 1
 136 507 l 1
 136 224 l 2
 136 114 194 58 281 58 c 0
 361 58 412 124 422 182 c 1
 422 507 l 1
 492 507 l 1
 492 0 l 1
 422 0 l 1
EndSplineSet
EndChar

StartChar: udieresis
Encoding: 252 252 97
Width: 568
Flags: MW
HStem: -6 64<237.5 309> 562 93<132.5 157.5 412.5 437.5>
VStem: 66 70<224 507> 99 93<596.5 621.5> 378 93<596.5 621.5> 422 70<0 63 63 63 182 507 0 507>
LayerCount: 2
Fore
SplineSet
145 562 m 0xd4
 120 562 99 584 99 609 c 0
 99 634 120 655 145 655 c 0
 170 655 192 634 192 609 c 0
 192 584 170 562 145 562 c 0xd4
425 562 m 0
 400 562 378 584 378 609 c 0xe8
 378 634 400 655 425 655 c 0
 450 655 471 634 471 609 c 0
 471 584 450 562 425 562 c 0
422 0 m 1
 422 63 l 1
 386 20 337 -6 281 -6 c 0
 155 -6 66 82 66 224 c 2
 66 507 l 1
 136 507 l 1
 136 224 l 2
 136 114 194 58 281 58 c 0xa4
 361 58 412 124 422 182 c 1
 422 507 l 1
 492 507 l 1
 492 0 l 1
 422 0 l 1
EndSplineSet
EndChar

StartChar: yacute
Encoding: 253 253 6
Width: 593
Flags: MW
HStem: -200 908<99 394 99 394>
VStem: 9 579<500 500>
LayerCount: 2
Fore
SplineSet
416 634 m 1
 213 554 l 1
 197 614 l 1
 394 708 l 1
 416 634 l 1
9 500 m 1
 90 500 l 1
 300 143 l 1
 509 500 l 1
 588 500 l 1
 179 -200 l 1
 99 -200 l 1
 260 75 l 1
 9 500 l 1
EndSplineSet
EndChar

StartChar: thorn
Encoding: 254 254 128
Width: 600
Flags: MW
HStem: -8 70<256.5 332 253 352.5> 434 70<258 332>
VStem: 88 70<-263 25 111 373 467 740> 460 70<196 298.5>
LayerCount: 2
Fore
SplineSet
158 740 m 1
 158 467 l 1
 193 490 235 504 281 504 c 0
 424 504 530 386 530 247 c 0
 530 109 424 -8 281 -8 c 0
 232 -8 190 6 158 25 c 1
 158 -263 l 1
 88 -263 l 1
 88 740 l 1
 158 740 l 1
158 373 m 1
 158 111 l 1
 178 91 225 62 281 62 c 0
 383 62 460 145 460 247 c 0
 460 350 383 434 281 434 c 0
 231 434 187 411 158 373 c 1
EndSplineSet
EndChar

StartChar: ydieresis
Encoding: 255 255 101
Width: 593
Flags: MW
HStem: -200 855<145.5 170.5 145.5 179 99 170.5>
VStem: 9 579<500 500>
LayerCount: 2
Fore
SplineSet
112 609 m 0
 112 584 133 562 158 562 c 0
 183 562 205 584 205 609 c 0
 205 634 183 655 158 655 c 0
 133 655 112 634 112 609 c 0
391 609 m 0
 391 584 413 562 438 562 c 0
 463 562 484 584 484 609 c 0
 484 634 463 655 438 655 c 0
 413 655 391 634 391 609 c 0
9 500 m 1
 90 500 l 1
 300 143 l 1
 509 500 l 1
 588 500 l 1
 179 -200 l 1
 99 -200 l 1
 260 75 l 1
 9 500 l 1
EndSplineSet
EndChar

StartChar: dotlessi
Encoding: 305 305 125
Width: 176
Flags: MW
HStem: 0 502<56 120 56 120>
VStem: 56 64<0 502 0 502>
LayerCount: 2
Fore
SplineSet
56 0 m 1
 56 502 l 1
 120 502 l 1
 120 0 l 1
 56 0 l 1
EndSplineSet
EndChar

StartChar: Lslash
Encoding: 321 321 9
Width: 456
Flags: MW
HStem: 0 64<187 441 187 441>
VStem: 117 70<64 343 343 343 443 700>
LayerCount: 2
Fore
SplineSet
117 0 m 1
 117 343 l 1
 19 299 l 1
 19 369 l 1
 117 413 l 1
 117 700 l 1
 187 700 l 1
 187 443 l 1
 344 513 l 1
 344 442 l 1
 187 373 l 1
 187 64 l 1
 441 64 l 1
 441 0 l 1
 117 0 l 1
EndSplineSet
EndChar

StartChar: lslash
Encoding: 322 322 2
Width: 355
Flags: MW
HStem: 0 700<136 206 136 206>
VStem: 136 70<0 320 320 320 423 700>
LayerCount: 2
Fore
SplineSet
136 0 m 1
 136 320 l 1
 62 286 l 1
 33 344 l 1
 136 391 l 1
 136 700 l 1
 206 700 l 1
 206 423 l 1
 296 464 l 1
 325 405 l 1
 206 351 l 1
 206 0 l 1
 136 0 l 1
EndSplineSet
EndChar

StartChar: OE
Encoding: 338 338 121
Width: 1065
Flags: MW
HStem: 0 64<310.5 420.5 651 1034> 322 64<651 959 651 959> 636 64<651 1033 651 651>
VStem: 36 70<271.5 430 271.5 446.5> 581 70<0 322 58 322 142 322 386 559 559 559>
LayerCount: 2
Fore
SplineSet
581 0 m 1
 581 58 l 1
 522 20 454 0 387 0 c 0
 193 0 36 157 36 351 c 0
 36 542 190 702 387 702 c 0
 459 702 525 681 581 644 c 1
 581 700 l 1
 1033 700 l 1
 1033 636 l 1
 651 636 l 1
 651 386 l 1
 959 386 l 1
 959 322 l 1
 651 322 l 1
 651 64 l 1
 1034 64 l 1
 1034 0 l 1
 581 0 l 1
581 142 m 1
 581 559 l 1
 530 608 462 638 387 638 c 0
 231 638 106 509 106 351 c 0
 106 192 234 64 387 64 c 0
 456 64 527 91 581 142 c 1
EndSplineSet
EndChar

StartChar: oe
Encoding: 339 339 127
Width: 1001
Flags: MW
HStem: -10 64<683.5 775 680 789.5> 0 64<244 342> 247 61<562 887 562 950 556 887> 454 64<244.5 342.5 224.5 346 689 775.5>
VStem: 37 70<204.5 313.5 204.5 330.5> 483 73<247 247 247 313.5> 887 68.04
LayerCount: 2
Fore
SplineSet
950 247 m 1x7e
 556 247 l 1
 559 143 621 54 739 54 c 0
 811 54 865 92 896 154 c 1
 954 107 l 1
 914 42 840 -10 739 -10 c 0xbe
 628 -10 553 47 515 124 c 1
 470 50 389 0 295 0 c 0
 153 0 37 116 37 259 c 0
 37 402 154 518 295 518 c 0
 390 518 474 466 518 389 c 1
 557 463 630 518 738 518 c 0
 813 518 873 491 913 444 c 0
 948 402 964 348 950 247 c 1x7e
295 64 m 0x7e
 397 64 483 151 483 259 c 0
 483 368 397 454 295 454 c 0
 194 454 107 368 107 259 c 0
 107 150 193 64 295 64 c 0x7e
562 308 m 1
 887 308 l 1
 897 395 832 454 738 454 c 0
 640 454 580 390 562 308 c 1
EndSplineSet
EndChar

StartChar: Scaron
Encoding: 352 352 3
Width: 491
Flags: MW
HStem: -2 64<198.5 282 198.5 294.5> 638 64<211 278>
VStem: 57 70<497 561.5 497 579.5> 396 70<142.5 236>
LayerCount: 2
Fore
SplineSet
62 900 m 1
 243 829 l 1
 424 900 l 1
 440 840 l 1
 243 745 l 1
 46 840 l 1
 62 900 l 1
425 625 m 1
 376 580 l 1
 348 607 313 638 243 638 c 0
 179 638 127 594 127 529 c 0
 127 465 178 437 257 405 c 0
 367 360 466 327 466 184 c 0
 466 58 353 -2 236 -2 c 0
 136 -2 61 49 22 92 c 1
 74 135 l 1
 108 97 161 62 236 62 c 0
 328 62 396 101 396 184 c 0
 396 288 317 310 230 346 c 0
 151 378 57 421 57 529 c 0
 57 630 145 702 243 702 c 0
 341 702 398 652 425 625 c 1
EndSplineSet
EndChar

StartChar: Ydieresis
Encoding: 376 376 102
Width: 638
Flags: MW
HStem: 0 855<167.5 354 167.5 284>
VStem: 284 70<0 339 0 339>
LayerCount: 2
Fore
SplineSet
134 809 m 0
 134 784 155 762 180 762 c 0
 205 762 227 784 227 809 c 0
 227 834 205 855 180 855 c 0
 155 855 134 834 134 809 c 0
413 809 m 0
 413 784 435 762 460 762 c 0
 485 762 506 784 506 809 c 0
 506 834 485 855 460 855 c 0
 435 855 413 834 413 809 c 0
634 700 m 1
 354 339 l 1
 354 0 l 1
 284 0 l 1
 284 339 l 1
 4 700 l 1
 90 700 l 1
 319 405 l 1
 548 700 l 1
 634 700 l 1
EndSplineSet
EndChar

StartChar: Zcaron
Encoding: 381 381 7
Width: 626
Flags: MW
HStem: 0 64<150 603 150 603> 636 64<82 482 82 611>
VStem: 20 591
LayerCount: 2
Fore
SplineSet
165 913 m 1
 346 843 l 1
 527 913 l 1
 543 853 l 1
 346 759 l 1
 149 853 l 1
 165 913 l 1
20 0 m 1
 482 636 l 1
 82 636 l 1
 82 700 l 1
 611 700 l 1
 150 64 l 1
 603 64 l 1
 603 0 l 1
 20 0 l 1
EndSplineSet
EndChar

StartChar: zcaron
Encoding: 382 382 8
Width: 539
Flags: MW
HStem: 0 64<159 481 159 481> 436 64<67 386 67 481>
VStem: 62 419<0 52 52 52>
LayerCount: 2
Fore
SplineSet
102 708 m 1
 283 638 l 1
 464 708 l 1
 480 648 l 1
 283 554 l 1
 86 648 l 1
 102 708 l 1
62 0 m 1
 62 52 l 1
 386 436 l 1
 67 436 l 1
 67 500 l 1
 481 500 l 1
 481 454 l 1
 159 64 l 1
 481 64 l 1
 481 0 l 1
 62 0 l 1
EndSplineSet
EndChar

StartChar: florin
Encoding: 402 402 190
Width: 600
Flags: MW
HStem: 465 64<95 200 77 216 288 428 95 272> 712 64<384 421.5>
VStem: 57 460
LayerCount: 2
Fore
SplineSet
517 742 m 1
 500 684 l 1
 479 698 442 712 401 712 c 0
 367 712 331 692 317 640 c 2
 288 529 l 1
 446 529 l 1
 428 465 l 1
 272 465 l 1
 129 -90 l 1
 57 -90 l 1
 200 465 l 1
 77 465 l 1
 95 529 l 1
 216 529 l 1
 250 657 l 2
 271 739 342 776 401 776 c 0
 456 776 492 758 517 742 c 1
EndSplineSet
EndChar

StartChar: circumflex
Encoding: 710 710 237
Width: 600
Flags: MW
HStem: 554 154
VStem: 86 394<614 614>
LayerCount: 2
Fore
SplineSet
86 614 m 1
 283 708 l 1
 480 614 l 1
 464 554 l 1
 283 625 l 1
 102 554 l 1
 86 614 l 1
EndSplineSet
EndChar

StartChar: caron
Encoding: 711 711 235
Width: 600
Flags: MW
HStem: 554 154
VStem: 86 394<648 648>
LayerCount: 2
Fore
SplineSet
102 708 m 1
 283 638 l 1
 464 708 l 1
 480 648 l 1
 283 554 l 1
 86 648 l 1
 102 708 l 1
EndSplineSet
EndChar

StartChar: breve
Encoding: 728 728 234
Width: 600
Flags: MW
HStem: 587 64<279 317 279 334>
VStem: 165 64<700.5 719 700.5 719> 366 64<700.5 719>
LayerCount: 2
Fore
SplineSet
366 719 m 1
 430 719 l 1
 430 647 370 587 298 587 c 0
 225 587 165 647 165 719 c 1
 229 719 l 1
 229 682 260 651 298 651 c 0
 336 651 366 682 366 719 c 1
EndSplineSet
EndChar

StartChar: dotaccent
Encoding: 729 729 239
Width: 600
Flags: MW
HStem: 596 93<278.5 303.5>
VStem: 245 93<630.5 655.5>
LayerCount: 2
Fore
SplineSet
245 643 m 0
 245 618 266 596 291 596 c 0
 316 596 338 618 338 643 c 0
 338 668 316 689 291 689 c 0
 266 689 245 668 245 643 c 0
EndSplineSet
EndChar

StartChar: ring
Encoding: 730 730 244
Width: 600
Flags: MW
HStem: 473 54<275 325 275 340> 708 54<275 325>
VStem: 155 54<592.5 642 592.5 657.5> 390 54<592.5 642>
LayerCount: 2
Fore
SplineSet
444 617 m 0
 444 537 380 473 300 473 c 0
 220 473 155 537 155 617 c 0
 155 698 220 762 300 762 c 0
 380 762 444 698 444 617 c 0
390 617 m 0
 390 667 350 708 300 708 c 0
 250 708 209 667 209 617 c 0
 209 568 250 527 300 527 c 0
 350 527 390 568 390 617 c 0
EndSplineSet
EndChar

StartChar: ogonek
Encoding: 731 731 243
Width: 600
Flags: MW
HStem: -210 64<260.5 279 260.5 279> -33 64<261 279>
VStem: 158 65<-105 -76.5 -105 -57>
LayerCount: 2
Fore
SplineSet
279 31 m 1
 279 -33 l 1
 243 -33 223 -62 223 -91 c 0
 223 -119 242 -146 279 -146 c 1
 279 -210 l 1
 215 -210 158 -153 158 -89 c 0
 158 -25 215 31 279 31 c 1
EndSplineSet
EndChar

StartChar: tilde
Encoding: 732 732 245
Width: 600
Flags: MW
HStem: 567 63<362.5 396 362.5 411> 627 58
VStem: 401.87 62.23
LayerCount: 2
Fore
SplineSet
398 673 m 1xa0
 462 673 l 1
 474 593 433 567 389 567 c 0xa0
 328 567 275 631 226 627 c 0
 202 625 192 603 183 575 c 1
 130 598 l 1x60
 144 645 179 681 223 685 c 0
 286 690 341 630 384 630 c 0
 408 630 403 653 398 673 c 1xa0
EndSplineSet
EndChar

StartChar: hungarumlaut
Encoding: 733 733 241
Width: 600
Flags: MW
HStem: 544 216<226 232 226 434>
VStem: 170 320<562 742>
LayerCount: 2
Fore
SplineSet
288 742 m 1
 232 544 l 1
 170 562 l 1
 226 760 l 1
 288 742 l 1
490 742 m 1
 434 544 l 1
 373 562 l 1
 429 760 l 1
 490 742 l 1
EndSplineSet
EndChar

StartChar: Delta
Encoding: 916 916 132
Width: 600
Flags: MW
HStem: 0 64<136 507 136 608>
VStem: 35 573<0 0>
LayerCount: 2
Fore
SplineSet
322 691 m 1
 608 0 l 1
 35 0 l 1
 322 691 l 1
322 511 m 1
 136 64 l 1
 507 64 l 1
 322 511 l 1
EndSplineSet
EndChar

StartChar: Omega
Encoding: 937 937 133
Width: 835
Flags: MW
HStem: 0 64<30 173 30 255 30 173 662 805> 633 64<343.5 492>
VStem: 72 70<272.5 407.5 264 424> 693 70<272.5 407.5>
LayerCount: 2
Fore
SplineSet
580 0 m 1
 549 57 l 1
 624 94 693 208 693 320 c 0
 693 495 566 633 418 633 c 0
 269 633 142 495 142 320 c 0
 142 208 211 95 287 57 c 1
 255 0 l 1
 30 0 l 1
 30 64 l 1
 173 64 l 1
 114 129 72 225 72 320 c 0
 72 528 227 697 418 697 c 0
 608 697 763 528 763 320 c 0
 763 225 722 129 662 64 c 1
 805 64 l 1
 805 0 l 1
 580 0 l 1
EndSplineSet
EndChar

StartChar: mu
Encoding: 956 956 134
Width: 600
Flags: MW
HStem: -2 64<263.5 323.5> 1 64<516 546>
VStem: 96 70<-238 36 180.5 221 221 475> 399 70<178 475>
LayerCount: 2
Fore
SplineSet
469 475 m 1xb0
 469 157 l 2
 469 126 480 65 546 65 c 1
 546 1 l 1x70
 486 1 450 26 428 57 c 1
 400 22 355 -2 292 -2 c 0
 235 -2 195 13 166 36 c 1
 166 -238 l 1
 96 -238 l 1
 96 475 l 1
 166 475 l 1
 166 221 l 2
 166 140 185 62 292 62 c 0
 365 62 399 112 399 178 c 2
 399 475 l 1
 469 475 l 1xb0
EndSplineSet
EndChar

StartChar: pi
Encoding: 960 960 135
Width: 600
Flags: MW
HStem: 0 64<515.5 549 515.5 549> 408 64<16 108 16 584 178 401 178 178 471 584 471 471>
VStem: 108 70<0 408 0 408> 401 70<157 408>
LayerCount: 2
Fore
SplineSet
471 408 m 1
 471 157 l 2
 471 126 482 64 549 64 c 1
 549 0 l 1
 419 0 401 117 401 157 c 2
 401 408 l 1
 178 408 l 1
 178 0 l 1
 108 0 l 1
 108 408 l 1
 16 408 l 1
 16 472 l 1
 584 472 l 1
 584 408 l 1
 471 408 l 1
EndSplineSet
EndChar

StartChar: endash
Encoding: 8211 8211 178
Width: 600
Flags: MW
HStem: 283 64<113 503 113 503>
VStem: 113 390<283 347 283 347>
LayerCount: 2
Fore
SplineSet
113 347 m 1
 503 347 l 1
 503 283 l 1
 113 283 l 1
 113 347 l 1
EndSplineSet
EndChar

StartChar: emdash
Encoding: 8212 8212 177
Width: 906
Flags: MW
HStem: 283 64<14 891 14 891>
VStem: 14 877<283 347 283 347>
LayerCount: 2
Fore
SplineSet
14 347 m 1
 891 347 l 1
 891 283 l 1
 14 283 l 1
 14 347 l 1
EndSplineSet
EndChar

StartChar: quoteleft
Encoding: 8216 8216 187
Width: 169
Flags: MW
HStem: 541 179<80 80>
VStem: 40 65
LayerCount: 2
Fore
SplineSet
80 541 m 1
 40 636 l 1
 40 720 l 1
 107 720 l 1
 103 640 l 1
 129 568 l 1
 80 541 l 1
EndSplineSet
EndChar

StartChar: quoteright
Encoding: 8217 8217 188
Width: 180
Flags: MW
HStem: 541 179<83 83>
VStem: 33 89<568 720>
LayerCount: 2
Fore
SplineSet
122 636 m 1
 122 720 l 1
 56 720 l 1
 60 640 l 1
 33 568 l 1
 83 541 l 1
 122 636 l 1
EndSplineSet
EndChar

StartChar: quotesinglbase
Encoding: 8218 8218 189
Width: 311
Flags: MW
HStem: -126 217<121 121>
VStem: 110 71<7 91 -7 91>
LayerCount: 2
Fore
SplineSet
181 91 m 1
 181 -7 l 1
 121 -126 l 1
 58 -98 l 1
 110 7 l 1
 110 91 l 1
 181 91 l 1
EndSplineSet
EndChar

StartChar: quotedblleft
Encoding: 8220 8220 185
Width: 336
Flags: MW
HStem: 541 179<99 99 246 246>
VStem: 60 64 207 64.5
LayerCount: 2
Fore
SplineSet
99 541 m 1
 60 636 l 1
 60 720 l 1
 126 720 l 1
 122 640 l 1
 149 568 l 1
 99 541 l 1
246 541 m 1
 207 636 l 1
 207 720 l 1
 273 720 l 1
 270 640 l 1
 296 568 l 1
 246 541 l 1
EndSplineSet
EndChar

StartChar: quotedblright
Encoding: 8221 8221 186
Width: 342
Flags: MW
HStem: 541 179<28 28 181 181>
VStem: 68 88
LayerCount: 2
Fore
SplineSet
28 541 m 1
 68 636 l 1
 68 720 l 1
 1 720 l 1
 5 640 l 1
 -21 568 l 1
 28 541 l 1
181 541 m 1
 220 636 l 1
 220 720 l 1
 154 720 l 1
 158 640 l 1
 131 568 l 1
 181 541 l 1
EndSplineSet
EndChar

StartChar: dagger
Encoding: 8224 8224 224
Width: 600
Flags: MW
HStem: 468 64<90 242 90 242 312 464>
VStem: 242 70<-139 468 532 739>
LayerCount: 2
Fore
SplineSet
312 -139 m 1
 242 -139 l 1
 242 468 l 1
 90 468 l 1
 90 532 l 1
 242 532 l 1
 242 739 l 1
 312 739 l 1
 312 532 l 1
 464 532 l 1
 464 468 l 1
 312 468 l 1
 312 -139 l 1
EndSplineSet
EndChar

StartChar: daggerdbl
Encoding: 8225 8225 225
Width: 600
Flags: MW
HStem: 73 64<90 242 90 242 312 464> 468 64<90 242 90 242 312 464>
VStem: 242 70<-139 73 -139 73 137 468 532 739>
LayerCount: 2
Fore
SplineSet
464 137 m 1
 464 73 l 1
 312 73 l 1
 312 -139 l 1
 242 -139 l 1
 242 73 l 1
 90 73 l 1
 90 137 l 1
 242 137 l 1
 242 468 l 1
 90 468 l 1
 90 532 l 1
 242 532 l 1
 242 739 l 1
 312 739 l 1
 312 532 l 1
 464 532 l 1
 464 468 l 1
 312 468 l 1
 312 137 l 1
 464 137 l 1
EndSplineSet
EndChar

StartChar: bullet
Encoding: 8226 8226 158
Width: 600
Flags: MW
HStem: 163 261<257 329>
VStem: 163 261<257 329>
LayerCount: 2
Fore
SplineSet
293 163 m 0
 221 163 163 221 163 293 c 0
 163 365 221 424 293 424 c 0
 365 424 424 365 424 293 c 0
 424 221 365 163 293 163 c 0
EndSplineSet
EndChar

StartChar: ellipsis
Encoding: 8230 8230 160
Width: 939
Flags: MW
HStem: 0 125<169.5 204 446 480.5 714.5 749>
VStem: 124 125<45.5 80> 401 125<45.5 80> 669 125<45.5 80>
LayerCount: 2
Fore
SplineSet
187 0 m 0
 152 0 124 28 124 63 c 0
 124 97 152 125 187 125 c 0
 221 125 249 97 249 63 c 0
 249 28 221 0 187 0 c 0
463 0 m 0
 429 0 401 28 401 63 c 0
 401 97 429 125 463 125 c 0
 498 125 526 97 526 63 c 0
 526 28 498 0 463 0 c 0
732 0 m 0
 697 0 669 28 669 63 c 0
 669 97 697 125 732 125 c 0
 766 125 794 97 794 63 c 0
 794 28 766 0 732 0 c 0
EndSplineSet
EndChar

StartChar: perthousand
Encoding: 8240 8240 212
Width: 976
Flags: MW
HStem: -4 64<484.5 509.5 484.5 531 785.5 810.5> 287 64<484 510 785 811> 356 64<165.5 190.5 165.5 212> 647 64<165 191>
VStem: 53 70<493.5 576 493.5 593.5> 233 70<493.5 576> 372 70<133.5 215.5 133.5 233.5> 552 70<133.5 215.5> 673 70<133.5 215.5 133.5 233.5> 853 70<133.5 215.5>
LayerCount: 2
Fore
SplineSet
178 356 m 0
 110 356 53 418 53 535 c 0
 53 652 110 711 178 711 c 0
 246 711 303 652 303 535 c 0
 303 418 246 356 178 356 c 0
620 711 m 1
 146 0 l 1
 64 0 l 1
 539 711 l 1
 620 711 l 1
178 420 m 0
 203 420 233 452 233 535 c 0
 233 617 204 647 178 647 c 0
 152 647 123 617 123 535 c 0
 123 452 153 420 178 420 c 0
497 -4 m 0
 429 -4 372 57 372 175 c 0
 372 292 429 351 497 351 c 0x43
 565 351 622 292 622 175 c 0
 622 57 565 -4 497 -4 c 0
798 -4 m 0xc3c0
 730 -4 673 57 673 175 c 0
 673 292 730 351 798 351 c 0
 866 351 923 292 923 175 c 0
 923 57 866 -4 798 -4 c 0xc3c0
497 60 m 0
 522 60 552 92 552 175 c 0
 552 256 523 287 497 287 c 0
 471 287 442 256 442 175 c 0
 442 92 472 60 497 60 c 0
798 60 m 0
 823 60 853 92 853 175 c 0
 853 256 824 287 798 287 c 0
 772 287 743 256 743 175 c 0
 743 92 773 60 798 60 c 0
EndSplineSet
EndChar

StartChar: guilsinglleft
Encoding: 8249 8249 182
Width: 600
Flags: MW
HStem: 67 412<397 397>
VStem: 189 260<110 273>
LayerCount: 2
Fore
SplineSet
397 479 m 1
 449 436 l 1
 300 273 l 1
 449 110 l 1
 397 67 l 1
 189 273 l 1
 397 479 l 1
EndSplineSet
EndChar

StartChar: guilsinglright
Encoding: 8250 8250 183
Width: 600
Flags: MW
HStem: 67 412<240 240>
VStem: 189 260<110 273 273 436>
LayerCount: 2
Fore
SplineSet
189 436 m 1
 337 273 l 1
 189 110 l 1
 240 67 l 1
 449 273 l 1
 240 479 l 1
 189 436 l 1
EndSplineSet
EndChar

StartChar: fraction
Encoding: 8260 8260 148
Width: 650
Flags: MW
HStem: -18 896<69 585>
VStem: 11 631
LayerCount: 2
Fore
SplineSet
642 841 m 1
 69 -18 l 1
 11 18 l 1
 585 878 l 1
 642 841 l 1
EndSplineSet
EndChar

StartChar: foursuperior
Encoding: 8308 8308 155
Width: 358
Flags: MW
HStem: 586 59<115 184 115 184 254 302>
VStem: 184 70<500 586 500 586 645 755 755 755>
LayerCount: 2
Fore
SplineSet
184 500 m 1
 184 586 l 1
 37 586 l 1
 37 642 l 1
 203 899 l 1
 254 899 l 1
 254 645 l 1
 302 645 l 1
 302 586 l 1
 254 586 l 1
 254 500 l 1
 184 500 l 1
184 645 m 1
 184 755 l 1
 115 645 l 1
 184 645 l 1
EndSplineSet
EndChar

StartChar: Euro
Encoding: 8364 8364 230
Width: 649
Flags: MW
HStem: -6 64<381 451.5 381 460.5> 206 64<20 127 20 145 20 127 220 220 220 466> 376 64<20 120 20 130 20 190 201 466> 640 64<373.5 451.5>
VStem: 120 70<349 376 335 376>
LayerCount: 2
Fore
SplineSet
569 120 m 1
 617 74 l 1
 565 24 497 -6 424 -6 c 0
 300 -6 193 82 145 206 c 1
 20 206 l 1
 20 270 l 1
 127 270 l 1
 122 296 120 322 120 349 c 2
 120 376 l 1
 20 376 l 1
 20 440 l 1
 130 440 l 1
 164 591 283 704 424 704 c 0
 497 704 565 674 617 625 c 1
 569 578 l 1
 525 620 479 640 424 640 c 0
 323 640 232 558 201 440 c 1
 466 440 l 1
 466 376 l 1
 190 376 l 1
 190 349 l 2
 190 321 193 295 198 270 c 1
 466 270 l 1
 466 206 l 1
 220 206 l 1
 260 116 338 58 424 58 c 0
 479 58 525 78 569 120 c 1
EndSplineSet
EndChar

StartChar: trademark
Encoding: 8482 8482 231
Width: 902
Flags: MW
HStem: 695 64<133 231 133 399 301 399 301 301>
VStem: 231 70<357 695 357 695> 486 70<357 580 357 759> 782 70<357 580 580 580>
LayerCount: 2
Fore
SplineSet
301 695 m 1
 301 357 l 1
 231 357 l 1
 231 695 l 1
 133 695 l 1
 133 759 l 1
 399 759 l 1
 399 695 l 1
 301 695 l 1
782 357 m 1
 782 580 l 1
 712 427 l 1
 627 427 l 1
 556 580 l 1
 556 357 l 1
 486 357 l 1
 486 759 l 1
 544 759 l 1
 669 506 l 1
 794 759 l 1
 852 759 l 1
 852 357 l 1
 782 357 l 1
EndSplineSet
EndChar

StartChar: partialdiff
Encoding: 8706 8706 210
Width: 600
Flags: MW
HStem: -32 64<234 308 234 318.5> 481 64<259.5 309.5 249.5 332.5> 772 64<64 150.5>
VStem: 32 70<193 288.5 193 295> 465 70<224 319.5>
LayerCount: 2
Fore
SplineSet
64 772 m 1
 64 836 l 1
 359 836 535 568 535 256 c 0
 535 182 508 109 466 58 c 0
 423 6 354 -32 283 -32 c 0
 143 -32 32 100 32 256 c 0
 32 334 61 410 107 462 c 0
 149 510 216 545 283 545 c 0
 336 545 385 526 425 495 c 1
 364 660 237 772 64 772 c 1
412 98 m 0
 445 139 465 192 465 256 c 0
 465 383 382 481 283 481 c 0
 236 481 194 459 159 420 c 1
 125 380 102 321 102 256 c 0
 102 130 185 32 283 32 c 0
 333 32 377 56 412 98 c 0
EndSplineSet
EndChar

StartChar: product
Encoding: 8719 8719 215
Width: 791
Flags: MW
HStem: 663 64<40 122 40 766 192 614 192 192 684 684 684 766>
VStem: 122 70<0 663 0 663> 614 70<0 663>
LayerCount: 2
Fore
SplineSet
684 0 m 1
 614 0 l 1
 614 663 l 1
 192 663 l 1
 192 0 l 1
 122 0 l 1
 122 663 l 1
 40 663 l 1
 40 727 l 1
 766 727 l 1
 766 663 l 1
 684 663 l 1
 684 0 l 1
EndSplineSet
EndChar

StartChar: summation
Encoding: 8721 8721 217
Width: 700
Flags: MW
HStem: -32 64<191 653 191 653> 663 64<191 653 191 191>
VStem: 49 604<-32 32>
LayerCount: 2
Fore
SplineSet
450 359 m 1
 450 336 l 1
 191 32 l 1
 653 32 l 1
 653 -32 l 1
 49 -32 l 1
 371 348 l 1
 49 727 l 1
 653 727 l 1
 653 663 l 1
 191 663 l 1
 450 359 l 1
EndSplineSet
EndChar

StartChar: minus
Encoding: 8722 8722 207
Width: 600
Flags: MW
HStem: 275 64<36 575 36 575>
VStem: 36 539<275 339 275 339>
LayerCount: 2
Fore
SplineSet
575 275 m 1
 36 275 l 1
 36 339 l 1
 575 339 l 1
 575 275 l 1
EndSplineSet
EndChar

StartChar: radical
Encoding: 8730 8730 216
Width: 630
Flags: MW
HStem: 439 64<80 227 80 176>
VStem: 80 541<439 742 503 742>
LayerCount: 2
Fore
SplineSet
80 439 m 1
 80 503 l 1
 227 503 l 1
 364 113 l 1
 548 742 l 1
 621 742 l 1
 372 -105 l 1
 367 -105 l 1
 176 439 l 1
 80 439 l 1
EndSplineSet
EndChar

StartChar: infinity
Encoding: 8734 8734 202
Width: 732
Flags: MW
HStem: 59 64<131.5 188.5 131.5 202 549.5 607.5> 361 64<131.5 188.5 550 600.5>
VStem: 17 70<215 269 215 273> 652 70<215 280.5>
LayerCount: 2
Fore
SplineSet
579 425 m 0
 671 425 722 347 722 242 c 0
 722 180 696 59 579 59 c 0
 494 59 413 141 369 191 c 1
 319 135 244 59 160 59 c 0
 43 59 17 180 17 242 c 0
 17 304 43 425 160 425 c 0
 245 425 318 350 369 292 c 1
 420 349 494 425 579 425 c 0
160 123 m 0
 217 123 276 187 324 242 c 1
 274 299 217 361 160 361 c 0
 103 361 87 296 87 242 c 0
 87 188 103 123 160 123 c 0
579 123 m 0
 636 123 652 188 652 242 c 0
 652 319 622 361 579 361 c 0
 521 361 463 297 415 242 c 1
 454 196 520 123 579 123 c 0
EndSplineSet
EndChar

StartChar: integral
Encoding: 8747 8747 203
Width: 600
Flags: MW
HStem: -157 65<131 154 131 169.5> 720 64<448.5 475.5>
VStem: 39 518
LayerCount: 2
Fore
SplineSet
557 761 m 1
 527 703 l 1
 510 711 487 720 464 720 c 0
 433 720 402 703 391 641 c 0
 369 516 276 -20 260 -76 c 0
 247 -123 199 -157 140 -157 c 0
 108 -157 73 -147 39 -124 c 1
 77 -70 l 1
 100 -86 122 -92 140 -92 c 0
 168 -92 187 -77 193 -58 c 0
 207 -8 300 526 322 652 c 0
 341 757 402 784 459 784 c 0
 500 784 539 769 557 761 c 1
EndSplineSet
EndChar

StartChar: approxequal
Encoding: 8776 8776 196
Width: 600
Flags: MW
HStem: 169 60<372 418 372 427.5> 228 58<221.5 263.5> 388 59<372 418> 447 58<221.5 263.5>
VStem: 134 57<179 193.5 179 210 397 412> 445 66<257 269 475.5 488>
LayerCount: 2
Fore
SplineSet
445 488 m 1x6c
 511 488 l 1
 511 410 454 388 401 388 c 0xac
 335 388 288 447 239 447 c 0
 204 447 191 427 191 397 c 1
 134 397 l 1x5c
 134 460 177 505 239 505 c 0
 330 505 340 447 404 447 c 0
 432 447 445 463 445 488 c 1x6c
445 269 m 1
 511 269 l 1
 511 192 454 169 401 169 c 0x9c
 335 169 288 228 239 228 c 0
 204 228 191 208 191 179 c 1
 134 179 l 1x5c
 134 241 177 286 239 286 c 0
 330 286 340 229 404 229 c 0
 432 229 445 245 445 269 c 1
EndSplineSet
EndChar

StartChar: notequal
Encoding: 8800 8800 209
Width: 600
Flags: MW
HStem: 128 64<88 218 88 238 304 520 88 285> 388 64<88 297 88 316 88 363 383 520>
VStem: 88 432<128 192 128 192 388 452 128 452>
LayerCount: 2
Fore
SplineSet
520 192 m 1
 520 128 l 1
 285 128 l 1
 209 -125 l 1
 147 -107 l 1
 218 128 l 1
 88 128 l 1
 88 192 l 1
 238 192 l 1
 297 388 l 1
 88 388 l 1
 88 452 l 1
 316 452 l 1
 402 737 l 1
 463 718 l 1
 383 452 l 1
 520 452 l 1
 520 388 l 1
 363 388 l 1
 304 192 l 1
 520 192 l 1
EndSplineSet
EndChar

StartChar: lessequal
Encoding: 8804 8804 205
Width: 600
Flags: MW
HStem: 32 62<466 466 466 560>
VStem: 43 517<-32 32 -32 32>
LayerCount: 2
Fore
SplineSet
466 521 m 1
 115 348 l 1
 115 267 l 1
 466 94 l 1
 496 157 l 1
 176 308 l 1
 496 459 l 1
 466 521 l 1
43 32 m 1
 43 -32 l 1
 560 -32 l 1
 560 32 l 1
 43 32 l 1
EndSplineSet
EndChar

StartChar: greaterequal
Encoding: 8805 8805 201
Width: 600
Flags: MW
HStem: -32 64<43 560 43 560>
VStem: 428 61<308 308>
LayerCount: 2
Fore
SplineSet
108 459 m 1
 137 521 l 1
 489 348 l 1
 489 267 l 1
 137 94 l 1
 108 157 l 1
 428 308 l 1
 108 459 l 1
43 32 m 1
 560 32 l 1
 560 -32 l 1
 43 -32 l 1
 43 32 l 1
EndSplineSet
EndChar

StartChar: lozenge
Encoding: 9674 9674 232
Width: 654
Flags: MW
HStem: -45 630<327 327>
VStem: 12 630<270 270>
LayerCount: 2
Fore
SplineSet
12 270 m 1
 327 585 l 1
 642 270 l 1
 327 -45 l 1
 12 270 l 1
547 270 m 1
 327 490 l 1
 106 270 l 1
 327 49 l 1
 547 270 l 1
EndSplineSet
EndChar

StartChar: fi
Encoding: 64257 64257 130
Width: 535
Flags: MW
HStem: 443 64<9 103 9 103 173 399> 589 82<423 445.5> 651 64<210.5 245.5>
VStem: 103 70<0 443 0 443 507 561> 393 83<618.5 641.5> 399 70<0 443 443 443>
LayerCount: 2
Fore
SplineSet
103 507 m 1xb4
 103 561 l 2
 103 623 125 715 236 715 c 0
 259 715 295 711 342 684 c 1
 308 628 l 1
 272 649 255 651 236 651 c 0
 185 651 173 612 173 561 c 2
 173 507 l 1
 469 507 l 1
 469 0 l 1
 399 0 l 1
 399 443 l 1
 173 443 l 1
 173 0 l 1
 103 0 l 1
 103 443 l 1
 9 443 l 1
 9 507 l 1
 103 507 l 1xb4
434 671 m 0xd8
 457 671 476 653 476 630 c 0
 476 607 457 589 434 589 c 0
 412 589 393 607 393 630 c 0
 393 653 412 671 434 671 c 0xd8
EndSplineSet
EndChar

StartChar: fl
Encoding: 64258 64258 131
Width: 567
Flags: MW
HStem: 443 64<9 103 9 103 173 316> 653 62<210.5 245.5>
VStem: 103 70<0 443 0 443 507 561> 419 70<0 700 0 700>
LayerCount: 2
Fore
SplineSet
342 684 m 1
 308 628 l 1
 272 649 255 653 236 653 c 0
 185 653 173 612 173 561 c 2
 173 507 l 1
 316 507 l 1
 316 443 l 1
 173 443 l 1
 173 0 l 1
 103 0 l 1
 103 443 l 1
 9 443 l 1
 9 507 l 1
 103 507 l 1
 103 561 l 2
 103 623 125 715 236 715 c 0
 259 715 295 711 342 684 c 1
419 0 m 1
 419 700 l 1
 489 700 l 1
 489 0 l 1
 419 0 l 1
EndSplineSet
EndChar

StartChar: .notdef
Encoding: 65536 -1 0
Width: 500
Flags: MW
HStem: 0 50<80 420 80 500> 650 50<80 80 80 420>
VStem: 0 50<95 605 95 700> 450 50<95 605 605 605>
LayerCount: 2
Fore
SplineSet
500 700 m 1
 500 0 l 1
 0 0 l 1
 0 700 l 1
 500 700 l 1
80 650 m 1
 250 395 l 1
 420 650 l 1
 80 650 l 1
220 350 m 1
 50 605 l 1
 50 95 l 1
 220 350 l 1
450 605 m 1
 280 350 l 1
 450 95 l 1
 450 605 l 1
250 305 m 1
 80 50 l 1
 420 50 l 1
 250 305 l 1
EndSplineSet
EndChar
